<svg width="319" height="180" viewBox="0 0 319 180" fill="none" xmlns="http://www.w3.org/2000/svg">
<path d="M235.5 137L237 135L235.5 133.5L222.5 131L211 131.5L215 135L218.5 140.5L221.5 146L222.5 150.5L217 164.5L225.5 164H227L227.5 162L227 155L228 153L230 150.5L230.5 147.5L233 144.5L235.5 140.5V137Z" fill="url(#paint0_linear)"/>
<path d="M204.5 128.5L219 132.5L226 148.5C224.833 152.667 222.5 161.1 222.5 161.5C222.5 161.9 218.5 164.333 216.5 165.5L163.5 167.5L142.5 166H141L138 167.5H135.5L134 168L131 169.5C115.739 170.149 85.7086 171.431 84.5318 171.497C84.521 171.499 84.5104 171.5 84.5 171.5C84.4897 171.5 84.5005 171.499 84.5318 171.497C84.9395 171.431 85.6753 170.149 86 169.5L84.5 163.5L80.5 156.5L77 154.5L76 153.5L80 152H85L89 150.5L88 147.5L83 143.5L77 140.5H74.5L79.5 140L102 141L104 139L116 135.5L118 133L121.5 132H127.5L128 131.5H134.5L150.5 133L160 134H173.5L187 132.5L197.5 131L204.5 128.5Z" fill="#273850"/>
<path d="M178 122.5L163 127.5L164 132.5L173.5 135L200 130.5L201.5 125.5L178 122.5Z" fill="#7E7E7E"/>
<path d="M72 140.5H83L88 144.5L94 150L79.5 154L90 167.5L84.5 171.5L64.5 169.5H54.5L49 171.5H42.5L41 165.5L29.5 137V124.5L26.5 122.5L25.5 120.5V118.5V116.5V114L26.5 113L25.5 111V108.5L26.5 107.5V106V104.5H29.5V103L31 101.5L36 103L39.5 107.5L44 109.5L62 134.5L72 140.5Z" fill="#ECBC9F"/>
<path d="M35.5 126L33 127.5V136.5L35.5 149L40.5 158L45 168L46.5 171C46.5 171 41.2907 172 39.7907 171C38.2907 170 35.5 156 35.5 156C33.6303 152.496 32.4654 150.364 30 146C30 146 27.5 139.5 27.5 136.5C27.5 133.5 28 131.5 28 131.5V128.5L30 124L33 122.5L35.5 123.5V126Z" fill="url(#paint1_linear)"/>
<path d="M233 49V42L224.5 48.5L213.5 59L208 62L205.5 65L210.5 71L240.5 68V59L235.5 55L233 49Z" fill="#D8A181"/>
<path d="M221.5 121L222.5 121.5L231.5 129L229 137H223L202.5 132L198.5 130L186 131.5L184 130.5L182 129L180 126L178 127.5L176 128L175 127.5L175.5 126L174 127L173 126.5L172 127.5L170 122.5L169 119L172 115.5L173.5 115L181 115.5H182L185 116L195.5 122.5L221.5 121Z" fill="#D8A181"/>
<path d="M247 62.5L238.5 58C232.761 61.4563 226 64 224.5 64.5C223 65 211.675 69.0772 207.5 65C207.422 64.5746 207.56 64.2296 208 63.5L209 62C209.5 61.5 211.5 60 211.5 60L211 59L202 63.5L187.5 67L184 72L179.5 94L171 110L167 115L169.5 120L173 115.5C178.67 115.239 181.108 115.289 185 115.5L194 122C197.23 121.605 199.062 121.392 203.5 121.5H222.5C226.214 125.671 226.595 128.761 224.5 135.5C224.088 136.416 223.488 136.713 222 137L223.5 137.5C227.833 137.333 236.6 137 237 137H242.5L246 135L250 128.5L253.5 113L261 93V86L258.5 72L254 67L247 62.5Z" fill="white"/>
<path d="M239.5 87L238.5 81V80L216.5 81L209 95.5L204.5 112L208 120.5L222 121.5L233.5 118.5L237.5 97L239.5 87Z" fill="url(#paint2_linear)"/>
<path d="M202.5 32.5L203.5 22.5C204.5 18.5 205 20 206.5 15.5L211 11.5C214.71 10.5237 216.79 10.9763 220.5 10L228.5 11.5L233 17C234.736 19.8135 235.346 22.7547 235.5 31.5C236.744 31.8599 237.014 33.3494 237 37.5C235.731 39.7879 235.288 41.0043 233 43L231 50L220.5 60.5C216.243 61.1439 214.047 61.0099 211 58.5L205 45V41C203.327 38.5661 202.5 37.5 202.5 32.5Z" fill="#ECBC9F"/>
<path d="M204 23.5L202.5 22C204.455 16.3738 205.956 13.3967 213 10C216.792 8.71797 219.08 8.2855 224 9C229.209 11.5109 229.916 13 231.5 15C234.684 19.0194 235.146 23.1803 235 32L230.5 34.5V38H228C228 34.5 226.941 31.9458 226 31C225.059 30.0542 224 29 224 29V26L223 23.5L207.5 24L204 23.5Z" fill="black"/>
<path d="M162 98C146.833 96.8333 116.3 94.6 115.5 95L128 131.5H129L133 132L142.5 133L157 135L174 136.5L201 131.5L198.5 130L173 133L162 98Z" fill="url(#paint3_linear)"/>
<path d="M162.5 98H162L173 133H173.5L162.5 98Z" fill="#C4C4C4"/>
<defs>
<linearGradient id="paint0_linear" x1="217" y1="164.5" x2="234" y2="131.5" gradientUnits="userSpaceOnUse">
<stop stop-color="#3B3F42"/>
<stop offset="1" stop-color="white"/>
</linearGradient>
<linearGradient id="paint1_linear" x1="25.5" y1="147" x2="47" y2="142" gradientUnits="userSpaceOnUse">
<stop offset="0.171875" stop-color="white"/>
<stop offset="0.416667" stop-color="#ECBC9F"/>
<stop offset="0.919237" stop-color="#ECBC9F"/>
</linearGradient>
<linearGradient id="paint2_linear" x1="259.5" y1="111.5" x2="229" y2="96.5" gradientUnits="userSpaceOnUse">
<stop offset="0.079222" stop-color="#C4C4C4"/>
<stop offset="0.432292" stop-color="#C4C4C4" stop-opacity="0.87675"/>
<stop offset="1" stop-color="#C4C4C4" stop-opacity="0"/>
</linearGradient>
<linearGradient id="paint3_linear" x1="168.5" y1="136" x2="121.5" y2="100" gradientUnits="userSpaceOnUse">
<stop stop-color="#1B2125"/>
<stop offset="1" stop-color="#717D86"/>
</linearGradient>
</defs>
</svg>
