<svg width="3200" height="160" viewBox="0 0 3200 160" fill="none" xmlns="http://www.w3.org/2000/svg">
<g clip-path="url(#clip0)">
<rect width="80" height="80" fill="#F5E9E2"/>
<rect x="53.75" y="-12.1274" width="77.0011" height="4" transform="rotate(135 53.75 -12.1274)" fill="#668F80"/>
<rect x="84.2344" y="41.8584" width="69.582" height="4" transform="rotate(135 84.2344 41.8584)" fill="#668F80"/>
<rect x="90.0312" y="46.8286" width="69.582" height="4" transform="rotate(135 90.0312 46.8286)" fill="#668F80"/>
<rect x="39.0312" y="-8.17139" width="69.582" height="4" transform="rotate(135 39.0312 -8.17139)" fill="#668F80"/>
<rect x="27.3281" y="19" width="48" height="13" rx="5" transform="rotate(45 27.3281 19)" fill="#F42272"/>
<rect x="46.4531" width="48" height="13" rx="5" transform="rotate(45 46.4531 0)" fill="#1E96FC"/>
<rect x="8.1875" y="38" width="48" height="13" rx="5" transform="rotate(45 8.1875 38)" fill="#1E96FC"/>
<circle cx="80.5" cy="80.5" r="12.5" fill="#564154"/>
</g>
<g clip-path="url(#clip1)">
<rect width="80" height="80" transform="translate(160) rotate(90)" fill="#F5E9E2"/>
<rect x="172.125" y="53.7549" width="77.0011" height="4" transform="rotate(-135 172.125 53.7549)" fill="#668F80"/>
<rect x="118.141" y="84.2393" width="69.582" height="4" transform="rotate(-135 118.141 84.2393)" fill="#668F80"/>
<rect x="113.172" y="90.0312" width="69.582" height="4" transform="rotate(-135 113.172 90.0312)" fill="#668F80"/>
<rect x="168.172" y="39.0312" width="69.582" height="4" transform="rotate(-135 168.172 39.0312)" fill="#668F80"/>
<rect x="141" y="27.3242" width="48" height="13" rx="5" transform="rotate(135 141 27.3242)" fill="#F42272"/>
<rect x="160" y="46.457" width="48" height="13" rx="5" transform="rotate(135 160 46.457)" fill="#1E96FC"/>
<rect x="122" y="8.19141" width="48" height="13" rx="5" transform="rotate(135 122 8.19141)" fill="#1E96FC"/>
<circle cx="79.5" cy="80.5" r="12.5" transform="rotate(90 79.5 80.5)" fill="#564154"/>
</g>
<g clip-path="url(#clip2)">
<rect width="80" height="80" transform="translate(0 160) rotate(-90)" fill="#F5E9E2"/>
<rect x="-12.125" y="106.245" width="77.0011" height="4" transform="rotate(45 -12.125 106.245)" fill="#668F80"/>
<rect x="41.8594" y="75.7607" width="69.582" height="4" transform="rotate(45 41.8594 75.7607)" fill="#668F80"/>
<rect x="46.8281" y="69.9688" width="69.582" height="4" transform="rotate(45 46.8281 69.9688)" fill="#668F80"/>
<rect x="-8.17188" y="120.969" width="69.582" height="4" transform="rotate(45 -8.17188 120.969)" fill="#668F80"/>
<rect x="19" y="132.676" width="48" height="13" rx="5" transform="rotate(-45 19 132.676)" fill="#F42272"/>
<rect y="113.543" width="48" height="13" rx="5" transform="rotate(-45 0 113.543)" fill="#1E96FC"/>
<rect x="38" y="151.809" width="48" height="13" rx="5" transform="rotate(-45 38 151.809)" fill="#1E96FC"/>
<circle cx="80.5" cy="79.5" r="12.5" transform="rotate(-90 80.5 79.5)" fill="#564154"/>
</g>
<g clip-path="url(#clip3)">
<rect width="80" height="80" transform="translate(160 160) rotate(-180)" fill="#F5E9E2"/>
<rect x="106.25" y="172.127" width="77.0011" height="4" transform="rotate(-45 106.25 172.127)" fill="#668F80"/>
<rect x="75.7656" y="118.142" width="69.582" height="4" transform="rotate(-45 75.7656 118.142)" fill="#668F80"/>
<rect x="69.9688" y="113.171" width="69.582" height="4" transform="rotate(-45 69.9688 113.171)" fill="#668F80"/>
<rect x="120.969" y="168.171" width="69.582" height="4" transform="rotate(-45 120.969 168.171)" fill="#668F80"/>
<rect x="132.672" y="141" width="48" height="13" rx="5" transform="rotate(-135 132.672 141)" fill="#F42272"/>
<rect x="113.547" y="160" width="48" height="13" rx="5" transform="rotate(-135 113.547 160)" fill="#1E96FC"/>
<rect x="151.812" y="122" width="48" height="13" rx="5" transform="rotate(-135 151.812 122)" fill="#1E96FC"/>
<circle cx="79.5" cy="79.5" r="12.5" transform="rotate(-180 79.5 79.5)" fill="#564154"/>
</g>
<g clip-path="url(#clip4)">
<rect width="80" height="80" transform="translate(160)" fill="#F5E9E2"/>
<rect x="213.75" y="-12.1274" width="77.0011" height="4" transform="rotate(135 213.75 -12.1274)" fill="#668F80"/>
<rect x="244.234" y="41.8584" width="69.582" height="4" transform="rotate(135 244.234 41.8584)" fill="#668F80"/>
<rect x="250.031" y="46.8286" width="69.582" height="4" transform="rotate(135 250.031 46.8286)" fill="#668F80"/>
<rect x="199.031" y="-8.17139" width="69.582" height="4" transform="rotate(135 199.031 -8.17139)" fill="#668F80"/>
<rect x="187.328" y="19" width="48" height="13" rx="5" transform="rotate(45 187.328 19)" fill="#F42272"/>
<rect x="206.453" width="48" height="13" rx="5" transform="rotate(45 206.453 0)" fill="#1E96FC"/>
<rect x="168.188" y="38" width="48" height="13" rx="5" transform="rotate(45 168.188 38)" fill="#1E96FC"/>
<circle cx="240.5" cy="80.5" r="12.5" fill="#564154"/>
</g>
<g clip-path="url(#clip5)">
<rect width="80" height="80" transform="translate(320) rotate(90)" fill="#F5E9E2"/>
<rect x="332.125" y="53.7549" width="77.0011" height="4" transform="rotate(-135 332.125 53.7549)" fill="#668F80"/>
<rect x="278.141" y="84.2393" width="69.582" height="4" transform="rotate(-135 278.141 84.2393)" fill="#668F80"/>
<rect x="273.172" y="90.0312" width="69.582" height="4" transform="rotate(-135 273.172 90.0312)" fill="#668F80"/>
<rect x="328.172" y="39.0312" width="69.582" height="4" transform="rotate(-135 328.172 39.0312)" fill="#668F80"/>
<rect x="301" y="27.3242" width="48" height="13" rx="5" transform="rotate(135 301 27.3242)" fill="#F42272"/>
<rect x="320" y="46.457" width="48" height="13" rx="5" transform="rotate(135 320 46.457)" fill="#1E96FC"/>
<rect x="282" y="8.19141" width="48" height="13" rx="5" transform="rotate(135 282 8.19141)" fill="#1E96FC"/>
<circle cx="239.5" cy="80.5" r="12.5" transform="rotate(90 239.5 80.5)" fill="#564154"/>
</g>
<g clip-path="url(#clip6)">
<rect width="80" height="80" transform="translate(160 160) rotate(-90)" fill="#F5E9E2"/>
<rect x="147.875" y="106.245" width="77.0011" height="4" transform="rotate(45 147.875 106.245)" fill="#668F80"/>
<rect x="201.859" y="75.7607" width="69.582" height="4" transform="rotate(45 201.859 75.7607)" fill="#668F80"/>
<rect x="206.828" y="69.9688" width="69.582" height="4" transform="rotate(45 206.828 69.9688)" fill="#668F80"/>
<rect x="151.828" y="120.969" width="69.582" height="4" transform="rotate(45 151.828 120.969)" fill="#668F80"/>
<rect x="179" y="132.676" width="48" height="13" rx="5" transform="rotate(-45 179 132.676)" fill="#F42272"/>
<rect x="160" y="113.543" width="48" height="13" rx="5" transform="rotate(-45 160 113.543)" fill="#1E96FC"/>
<rect x="198" y="151.809" width="48" height="13" rx="5" transform="rotate(-45 198 151.809)" fill="#1E96FC"/>
<circle cx="240.5" cy="79.5" r="12.5" transform="rotate(-90 240.5 79.5)" fill="#564154"/>
</g>
<g clip-path="url(#clip7)">
<rect width="80" height="80" transform="translate(320 160) rotate(-180)" fill="#F5E9E2"/>
<rect x="266.25" y="172.127" width="77.0011" height="4" transform="rotate(-45 266.25 172.127)" fill="#668F80"/>
<rect x="235.766" y="118.142" width="69.582" height="4" transform="rotate(-45 235.766 118.142)" fill="#668F80"/>
<rect x="229.969" y="113.171" width="69.582" height="4" transform="rotate(-45 229.969 113.171)" fill="#668F80"/>
<rect x="280.969" y="168.171" width="69.582" height="4" transform="rotate(-45 280.969 168.171)" fill="#668F80"/>
<rect x="292.672" y="141" width="48" height="13" rx="5" transform="rotate(-135 292.672 141)" fill="#F42272"/>
<rect x="273.547" y="160" width="48" height="13" rx="5" transform="rotate(-135 273.547 160)" fill="#1E96FC"/>
<rect x="311.812" y="122" width="48" height="13" rx="5" transform="rotate(-135 311.812 122)" fill="#1E96FC"/>
<circle cx="239.5" cy="79.5" r="12.5" transform="rotate(-180 239.5 79.5)" fill="#564154"/>
</g>
<g clip-path="url(#clip8)">
<rect width="80" height="80" transform="translate(320)" fill="#F5E9E2"/>
<rect x="373.75" y="-12.1274" width="77.0011" height="4" transform="rotate(135 373.75 -12.1274)" fill="#668F80"/>
<rect x="404.234" y="41.8584" width="69.582" height="4" transform="rotate(135 404.234 41.8584)" fill="#668F80"/>
<rect x="410.031" y="46.8286" width="69.582" height="4" transform="rotate(135 410.031 46.8286)" fill="#668F80"/>
<rect x="359.031" y="-8.17139" width="69.582" height="4" transform="rotate(135 359.031 -8.17139)" fill="#668F80"/>
<rect x="347.328" y="19" width="48" height="13" rx="5" transform="rotate(45 347.328 19)" fill="#F42272"/>
<rect x="366.453" width="48" height="13" rx="5" transform="rotate(45 366.453 0)" fill="#1E96FC"/>
<rect x="328.188" y="38" width="48" height="13" rx="5" transform="rotate(45 328.188 38)" fill="#1E96FC"/>
<circle cx="400.5" cy="80.5" r="12.5" fill="#564154"/>
</g>
<g clip-path="url(#clip9)">
<rect width="80" height="80" transform="translate(480) rotate(90)" fill="#F5E9E2"/>
<rect x="492.125" y="53.7549" width="77.0011" height="4" transform="rotate(-135 492.125 53.7549)" fill="#668F80"/>
<rect x="438.141" y="84.2393" width="69.582" height="4" transform="rotate(-135 438.141 84.2393)" fill="#668F80"/>
<rect x="433.172" y="90.0312" width="69.582" height="4" transform="rotate(-135 433.172 90.0312)" fill="#668F80"/>
<rect x="488.172" y="39.0312" width="69.582" height="4" transform="rotate(-135 488.172 39.0312)" fill="#668F80"/>
<rect x="461" y="27.3242" width="48" height="13" rx="5" transform="rotate(135 461 27.3242)" fill="#F42272"/>
<rect x="480" y="46.457" width="48" height="13" rx="5" transform="rotate(135 480 46.457)" fill="#1E96FC"/>
<rect x="442" y="8.19141" width="48" height="13" rx="5" transform="rotate(135 442 8.19141)" fill="#1E96FC"/>
<circle cx="399.5" cy="80.5" r="12.5" transform="rotate(90 399.5 80.5)" fill="#564154"/>
</g>
<g clip-path="url(#clip10)">
<rect width="80" height="80" transform="translate(320 160) rotate(-90)" fill="#F5E9E2"/>
<rect x="307.875" y="106.245" width="77.0011" height="4" transform="rotate(45 307.875 106.245)" fill="#668F80"/>
<rect x="361.859" y="75.7607" width="69.582" height="4" transform="rotate(45 361.859 75.7607)" fill="#668F80"/>
<rect x="366.828" y="69.9688" width="69.582" height="4" transform="rotate(45 366.828 69.9688)" fill="#668F80"/>
<rect x="311.828" y="120.969" width="69.582" height="4" transform="rotate(45 311.828 120.969)" fill="#668F80"/>
<rect x="339" y="132.676" width="48" height="13" rx="5" transform="rotate(-45 339 132.676)" fill="#F42272"/>
<rect x="320" y="113.543" width="48" height="13" rx="5" transform="rotate(-45 320 113.543)" fill="#1E96FC"/>
<rect x="358" y="151.809" width="48" height="13" rx="5" transform="rotate(-45 358 151.809)" fill="#1E96FC"/>
<circle cx="400.5" cy="79.5" r="12.5" transform="rotate(-90 400.5 79.5)" fill="#564154"/>
</g>
<g clip-path="url(#clip11)">
<rect width="80" height="80" transform="translate(480 160) rotate(-180)" fill="#F5E9E2"/>
<rect x="426.25" y="172.127" width="77.0011" height="4" transform="rotate(-45 426.25 172.127)" fill="#668F80"/>
<rect x="395.766" y="118.142" width="69.582" height="4" transform="rotate(-45 395.766 118.142)" fill="#668F80"/>
<rect x="389.969" y="113.171" width="69.582" height="4" transform="rotate(-45 389.969 113.171)" fill="#668F80"/>
<rect x="440.969" y="168.171" width="69.582" height="4" transform="rotate(-45 440.969 168.171)" fill="#668F80"/>
<rect x="452.672" y="141" width="48" height="13" rx="5" transform="rotate(-135 452.672 141)" fill="#F42272"/>
<rect x="433.547" y="160" width="48" height="13" rx="5" transform="rotate(-135 433.547 160)" fill="#1E96FC"/>
<rect x="471.812" y="122" width="48" height="13" rx="5" transform="rotate(-135 471.812 122)" fill="#1E96FC"/>
<circle cx="399.5" cy="79.5" r="12.5" transform="rotate(-180 399.5 79.5)" fill="#564154"/>
</g>
<g clip-path="url(#clip12)">
<rect width="80" height="80" transform="translate(480)" fill="#F5E9E2"/>
<rect x="533.75" y="-12.1274" width="77.0011" height="4" transform="rotate(135 533.75 -12.1274)" fill="#668F80"/>
<rect x="564.234" y="41.8584" width="69.582" height="4" transform="rotate(135 564.234 41.8584)" fill="#668F80"/>
<rect x="570.031" y="46.8286" width="69.582" height="4" transform="rotate(135 570.031 46.8286)" fill="#668F80"/>
<rect x="519.031" y="-8.17139" width="69.582" height="4" transform="rotate(135 519.031 -8.17139)" fill="#668F80"/>
<rect x="507.328" y="19" width="48" height="13" rx="5" transform="rotate(45 507.328 19)" fill="#F42272"/>
<rect x="526.453" width="48" height="13" rx="5" transform="rotate(45 526.453 0)" fill="#1E96FC"/>
<rect x="488.188" y="38" width="48" height="13" rx="5" transform="rotate(45 488.188 38)" fill="#1E96FC"/>
<circle cx="560.5" cy="80.5" r="12.5" fill="#564154"/>
</g>
<g clip-path="url(#clip13)">
<rect width="80" height="80" transform="translate(640) rotate(90)" fill="#F5E9E2"/>
<rect x="652.125" y="53.7549" width="77.0011" height="4" transform="rotate(-135 652.125 53.7549)" fill="#668F80"/>
<rect x="598.141" y="84.2393" width="69.582" height="4" transform="rotate(-135 598.141 84.2393)" fill="#668F80"/>
<rect x="593.172" y="90.0312" width="69.582" height="4" transform="rotate(-135 593.172 90.0312)" fill="#668F80"/>
<rect x="648.172" y="39.0312" width="69.582" height="4" transform="rotate(-135 648.172 39.0312)" fill="#668F80"/>
<rect x="621" y="27.3242" width="48" height="13" rx="5" transform="rotate(135 621 27.3242)" fill="#F42272"/>
<rect x="640" y="46.457" width="48" height="13" rx="5" transform="rotate(135 640 46.457)" fill="#1E96FC"/>
<rect x="602" y="8.19141" width="48" height="13" rx="5" transform="rotate(135 602 8.19141)" fill="#1E96FC"/>
<circle cx="559.5" cy="80.5" r="12.5" transform="rotate(90 559.5 80.5)" fill="#564154"/>
</g>
<g clip-path="url(#clip14)">
<rect width="80" height="80" transform="translate(480 160) rotate(-90)" fill="#F5E9E2"/>
<rect x="467.875" y="106.245" width="77.0011" height="4" transform="rotate(45 467.875 106.245)" fill="#668F80"/>
<rect x="521.859" y="75.7607" width="69.582" height="4" transform="rotate(45 521.859 75.7607)" fill="#668F80"/>
<rect x="526.828" y="69.9688" width="69.582" height="4" transform="rotate(45 526.828 69.9688)" fill="#668F80"/>
<rect x="471.828" y="120.969" width="69.582" height="4" transform="rotate(45 471.828 120.969)" fill="#668F80"/>
<rect x="499" y="132.676" width="48" height="13" rx="5" transform="rotate(-45 499 132.676)" fill="#F42272"/>
<rect x="480" y="113.543" width="48" height="13" rx="5" transform="rotate(-45 480 113.543)" fill="#1E96FC"/>
<rect x="518" y="151.809" width="48" height="13" rx="5" transform="rotate(-45 518 151.809)" fill="#1E96FC"/>
<circle cx="560.5" cy="79.5" r="12.5" transform="rotate(-90 560.5 79.5)" fill="#564154"/>
</g>
<g clip-path="url(#clip15)">
<rect width="80" height="80" transform="translate(640 160) rotate(-180)" fill="#F5E9E2"/>
<rect x="586.25" y="172.127" width="77.0011" height="4" transform="rotate(-45 586.25 172.127)" fill="#668F80"/>
<rect x="555.766" y="118.142" width="69.582" height="4" transform="rotate(-45 555.766 118.142)" fill="#668F80"/>
<rect x="549.969" y="113.171" width="69.582" height="4" transform="rotate(-45 549.969 113.171)" fill="#668F80"/>
<rect x="600.969" y="168.171" width="69.582" height="4" transform="rotate(-45 600.969 168.171)" fill="#668F80"/>
<rect x="612.672" y="141" width="48" height="13" rx="5" transform="rotate(-135 612.672 141)" fill="#F42272"/>
<rect x="593.547" y="160" width="48" height="13" rx="5" transform="rotate(-135 593.547 160)" fill="#1E96FC"/>
<rect x="631.812" y="122" width="48" height="13" rx="5" transform="rotate(-135 631.812 122)" fill="#1E96FC"/>
<circle cx="559.5" cy="79.5" r="12.5" transform="rotate(-180 559.5 79.5)" fill="#564154"/>
</g>
<g clip-path="url(#clip16)">
<rect width="80" height="80" transform="translate(640)" fill="#F5E9E2"/>
<rect x="693.75" y="-12.1274" width="77.0011" height="4" transform="rotate(135 693.75 -12.1274)" fill="#668F80"/>
<rect x="724.234" y="41.8584" width="69.582" height="4" transform="rotate(135 724.234 41.8584)" fill="#668F80"/>
<rect x="730.031" y="46.8286" width="69.582" height="4" transform="rotate(135 730.031 46.8286)" fill="#668F80"/>
<rect x="679.031" y="-8.17139" width="69.582" height="4" transform="rotate(135 679.031 -8.17139)" fill="#668F80"/>
<rect x="667.328" y="19" width="48" height="13" rx="5" transform="rotate(45 667.328 19)" fill="#F42272"/>
<rect x="686.453" width="48" height="13" rx="5" transform="rotate(45 686.453 0)" fill="#1E96FC"/>
<rect x="648.188" y="38" width="48" height="13" rx="5" transform="rotate(45 648.188 38)" fill="#1E96FC"/>
<circle cx="720.5" cy="80.5" r="12.5" fill="#564154"/>
</g>
<g clip-path="url(#clip17)">
<rect width="80" height="80" transform="translate(800) rotate(90)" fill="#F5E9E2"/>
<rect x="812.125" y="53.7549" width="77.0011" height="4" transform="rotate(-135 812.125 53.7549)" fill="#668F80"/>
<rect x="758.141" y="84.2393" width="69.582" height="4" transform="rotate(-135 758.141 84.2393)" fill="#668F80"/>
<rect x="753.172" y="90.0312" width="69.582" height="4" transform="rotate(-135 753.172 90.0312)" fill="#668F80"/>
<rect x="808.172" y="39.0312" width="69.582" height="4" transform="rotate(-135 808.172 39.0312)" fill="#668F80"/>
<rect x="781" y="27.3242" width="48" height="13" rx="5" transform="rotate(135 781 27.3242)" fill="#F42272"/>
<rect x="800" y="46.457" width="48" height="13" rx="5" transform="rotate(135 800 46.457)" fill="#1E96FC"/>
<rect x="762" y="8.19141" width="48" height="13" rx="5" transform="rotate(135 762 8.19141)" fill="#1E96FC"/>
<circle cx="719.5" cy="80.5" r="12.5" transform="rotate(90 719.5 80.5)" fill="#564154"/>
</g>
<g clip-path="url(#clip18)">
<rect width="80" height="80" transform="translate(640 160) rotate(-90)" fill="#F5E9E2"/>
<rect x="627.875" y="106.245" width="77.0011" height="4" transform="rotate(45 627.875 106.245)" fill="#668F80"/>
<rect x="681.859" y="75.7607" width="69.582" height="4" transform="rotate(45 681.859 75.7607)" fill="#668F80"/>
<rect x="686.828" y="69.9688" width="69.582" height="4" transform="rotate(45 686.828 69.9688)" fill="#668F80"/>
<rect x="631.828" y="120.969" width="69.582" height="4" transform="rotate(45 631.828 120.969)" fill="#668F80"/>
<rect x="659" y="132.676" width="48" height="13" rx="5" transform="rotate(-45 659 132.676)" fill="#F42272"/>
<rect x="640" y="113.543" width="48" height="13" rx="5" transform="rotate(-45 640 113.543)" fill="#1E96FC"/>
<rect x="678" y="151.809" width="48" height="13" rx="5" transform="rotate(-45 678 151.809)" fill="#1E96FC"/>
<circle cx="720.5" cy="79.5" r="12.5" transform="rotate(-90 720.5 79.5)" fill="#564154"/>
</g>
<g clip-path="url(#clip19)">
<rect width="80" height="80" transform="translate(800 160) rotate(-180)" fill="#F5E9E2"/>
<rect x="746.25" y="172.127" width="77.0011" height="4" transform="rotate(-45 746.25 172.127)" fill="#668F80"/>
<rect x="715.766" y="118.142" width="69.582" height="4" transform="rotate(-45 715.766 118.142)" fill="#668F80"/>
<rect x="709.969" y="113.171" width="69.582" height="4" transform="rotate(-45 709.969 113.171)" fill="#668F80"/>
<rect x="760.969" y="168.171" width="69.582" height="4" transform="rotate(-45 760.969 168.171)" fill="#668F80"/>
<rect x="772.672" y="141" width="48" height="13" rx="5" transform="rotate(-135 772.672 141)" fill="#F42272"/>
<rect x="753.547" y="160" width="48" height="13" rx="5" transform="rotate(-135 753.547 160)" fill="#1E96FC"/>
<rect x="791.812" y="122" width="48" height="13" rx="5" transform="rotate(-135 791.812 122)" fill="#1E96FC"/>
<circle cx="719.5" cy="79.5" r="12.5" transform="rotate(-180 719.5 79.5)" fill="#564154"/>
</g>
<g clip-path="url(#clip20)">
<rect width="80" height="80" transform="translate(800)" fill="#F5E9E2"/>
<rect x="853.75" y="-12.1274" width="77.0011" height="4" transform="rotate(135 853.75 -12.1274)" fill="#668F80"/>
<rect x="884.234" y="41.8584" width="69.582" height="4" transform="rotate(135 884.234 41.8584)" fill="#668F80"/>
<rect x="890.031" y="46.8286" width="69.582" height="4" transform="rotate(135 890.031 46.8286)" fill="#668F80"/>
<rect x="839.031" y="-8.17139" width="69.582" height="4" transform="rotate(135 839.031 -8.17139)" fill="#668F80"/>
<rect x="827.328" y="19" width="48" height="13" rx="5" transform="rotate(45 827.328 19)" fill="#F42272"/>
<rect x="846.453" width="48" height="13" rx="5" transform="rotate(45 846.453 0)" fill="#1E96FC"/>
<rect x="808.188" y="38" width="48" height="13" rx="5" transform="rotate(45 808.188 38)" fill="#1E96FC"/>
<circle cx="880.5" cy="80.5" r="12.5" fill="#564154"/>
</g>
<g clip-path="url(#clip21)">
<rect width="80" height="80" transform="translate(960) rotate(90)" fill="#F5E9E2"/>
<rect x="972.125" y="53.7549" width="77.0011" height="4" transform="rotate(-135 972.125 53.7549)" fill="#668F80"/>
<rect x="918.141" y="84.2393" width="69.582" height="4" transform="rotate(-135 918.141 84.2393)" fill="#668F80"/>
<rect x="913.172" y="90.0312" width="69.582" height="4" transform="rotate(-135 913.172 90.0312)" fill="#668F80"/>
<rect x="968.172" y="39.0312" width="69.582" height="4" transform="rotate(-135 968.172 39.0312)" fill="#668F80"/>
<rect x="941" y="27.3242" width="48" height="13" rx="5" transform="rotate(135 941 27.3242)" fill="#F42272"/>
<rect x="960" y="46.457" width="48" height="13" rx="5" transform="rotate(135 960 46.457)" fill="#1E96FC"/>
<rect x="922" y="8.19141" width="48" height="13" rx="5" transform="rotate(135 922 8.19141)" fill="#1E96FC"/>
<circle cx="879.5" cy="80.5" r="12.5" transform="rotate(90 879.5 80.5)" fill="#564154"/>
</g>
<g clip-path="url(#clip22)">
<rect width="80" height="80" transform="translate(800 160) rotate(-90)" fill="#F5E9E2"/>
<rect x="787.875" y="106.245" width="77.0011" height="4" transform="rotate(45 787.875 106.245)" fill="#668F80"/>
<rect x="841.859" y="75.7607" width="69.582" height="4" transform="rotate(45 841.859 75.7607)" fill="#668F80"/>
<rect x="846.828" y="69.9688" width="69.582" height="4" transform="rotate(45 846.828 69.9688)" fill="#668F80"/>
<rect x="791.828" y="120.969" width="69.582" height="4" transform="rotate(45 791.828 120.969)" fill="#668F80"/>
<rect x="819" y="132.676" width="48" height="13" rx="5" transform="rotate(-45 819 132.676)" fill="#F42272"/>
<rect x="800" y="113.543" width="48" height="13" rx="5" transform="rotate(-45 800 113.543)" fill="#1E96FC"/>
<rect x="838" y="151.809" width="48" height="13" rx="5" transform="rotate(-45 838 151.809)" fill="#1E96FC"/>
<circle cx="880.5" cy="79.5" r="12.5" transform="rotate(-90 880.5 79.5)" fill="#564154"/>
</g>
<g clip-path="url(#clip23)">
<rect width="80" height="80" transform="translate(960 160) rotate(-180)" fill="#F5E9E2"/>
<rect x="906.25" y="172.127" width="77.0011" height="4" transform="rotate(-45 906.25 172.127)" fill="#668F80"/>
<rect x="875.766" y="118.142" width="69.582" height="4" transform="rotate(-45 875.766 118.142)" fill="#668F80"/>
<rect x="869.969" y="113.171" width="69.582" height="4" transform="rotate(-45 869.969 113.171)" fill="#668F80"/>
<rect x="920.969" y="168.171" width="69.582" height="4" transform="rotate(-45 920.969 168.171)" fill="#668F80"/>
<rect x="932.672" y="141" width="48" height="13" rx="5" transform="rotate(-135 932.672 141)" fill="#F42272"/>
<rect x="913.547" y="160" width="48" height="13" rx="5" transform="rotate(-135 913.547 160)" fill="#1E96FC"/>
<rect x="951.812" y="122" width="48" height="13" rx="5" transform="rotate(-135 951.812 122)" fill="#1E96FC"/>
<circle cx="879.5" cy="79.5" r="12.5" transform="rotate(-180 879.5 79.5)" fill="#564154"/>
</g>
<g clip-path="url(#clip24)">
<rect width="80" height="80" transform="translate(960)" fill="#F5E9E2"/>
<rect x="1013.75" y="-12.1274" width="77.0011" height="4" transform="rotate(135 1013.75 -12.1274)" fill="#668F80"/>
<rect x="1044.23" y="41.8584" width="69.582" height="4" transform="rotate(135 1044.23 41.8584)" fill="#668F80"/>
<rect x="1050.03" y="46.8286" width="69.582" height="4" transform="rotate(135 1050.03 46.8286)" fill="#668F80"/>
<rect x="999.031" y="-8.17139" width="69.582" height="4" transform="rotate(135 999.031 -8.17139)" fill="#668F80"/>
<rect x="987.328" y="19" width="48" height="13" rx="5" transform="rotate(45 987.328 19)" fill="#F42272"/>
<rect x="1006.45" width="48" height="13" rx="5" transform="rotate(45 1006.45 0)" fill="#1E96FC"/>
<rect x="968.188" y="38" width="48" height="13" rx="5" transform="rotate(45 968.188 38)" fill="#1E96FC"/>
<circle cx="1040.5" cy="80.5" r="12.5" fill="#564154"/>
</g>
<g clip-path="url(#clip25)">
<rect width="80" height="80" transform="translate(1120) rotate(90)" fill="#F5E9E2"/>
<rect x="1132.12" y="53.7549" width="77.0011" height="4" transform="rotate(-135 1132.12 53.7549)" fill="#668F80"/>
<rect x="1078.14" y="84.2393" width="69.582" height="4" transform="rotate(-135 1078.14 84.2393)" fill="#668F80"/>
<rect x="1073.17" y="90.0312" width="69.582" height="4" transform="rotate(-135 1073.17 90.0312)" fill="#668F80"/>
<rect x="1128.17" y="39.0312" width="69.582" height="4" transform="rotate(-135 1128.17 39.0312)" fill="#668F80"/>
<rect x="1101" y="27.3242" width="48" height="13" rx="5" transform="rotate(135 1101 27.3242)" fill="#F42272"/>
<rect x="1120" y="46.457" width="48" height="13" rx="5" transform="rotate(135 1120 46.457)" fill="#1E96FC"/>
<rect x="1082" y="8.19141" width="48" height="13" rx="5" transform="rotate(135 1082 8.19141)" fill="#1E96FC"/>
<circle cx="1039.5" cy="80.5" r="12.5" transform="rotate(90 1039.5 80.5)" fill="#564154"/>
</g>
<g clip-path="url(#clip26)">
<rect width="80" height="80" transform="translate(960 160) rotate(-90)" fill="#F5E9E2"/>
<rect x="947.875" y="106.245" width="77.0011" height="4" transform="rotate(45 947.875 106.245)" fill="#668F80"/>
<rect x="1001.86" y="75.7607" width="69.582" height="4" transform="rotate(45 1001.86 75.7607)" fill="#668F80"/>
<rect x="1006.83" y="69.9688" width="69.582" height="4" transform="rotate(45 1006.83 69.9688)" fill="#668F80"/>
<rect x="951.828" y="120.969" width="69.582" height="4" transform="rotate(45 951.828 120.969)" fill="#668F80"/>
<rect x="979" y="132.676" width="48" height="13" rx="5" transform="rotate(-45 979 132.676)" fill="#F42272"/>
<rect x="960" y="113.543" width="48" height="13" rx="5" transform="rotate(-45 960 113.543)" fill="#1E96FC"/>
<rect x="998" y="151.809" width="48" height="13" rx="5" transform="rotate(-45 998 151.809)" fill="#1E96FC"/>
<circle cx="1040.5" cy="79.5" r="12.5" transform="rotate(-90 1040.5 79.5)" fill="#564154"/>
</g>
<g clip-path="url(#clip27)">
<rect width="80" height="80" transform="translate(1120 160) rotate(-180)" fill="#F5E9E2"/>
<rect x="1066.25" y="172.127" width="77.0011" height="4" transform="rotate(-45 1066.25 172.127)" fill="#668F80"/>
<rect x="1035.77" y="118.142" width="69.582" height="4" transform="rotate(-45 1035.77 118.142)" fill="#668F80"/>
<rect x="1029.97" y="113.171" width="69.582" height="4" transform="rotate(-45 1029.97 113.171)" fill="#668F80"/>
<rect x="1080.97" y="168.171" width="69.582" height="4" transform="rotate(-45 1080.97 168.171)" fill="#668F80"/>
<rect x="1092.67" y="141" width="48" height="13" rx="5" transform="rotate(-135 1092.67 141)" fill="#F42272"/>
<rect x="1073.55" y="160" width="48" height="13" rx="5" transform="rotate(-135 1073.55 160)" fill="#1E96FC"/>
<rect x="1111.81" y="122" width="48" height="13" rx="5" transform="rotate(-135 1111.81 122)" fill="#1E96FC"/>
<circle cx="1039.5" cy="79.5" r="12.5" transform="rotate(-180 1039.5 79.5)" fill="#564154"/>
</g>
<g clip-path="url(#clip28)">
<rect width="80" height="80" transform="translate(1120)" fill="#F5E9E2"/>
<rect x="1173.75" y="-12.1274" width="77.0011" height="4" transform="rotate(135 1173.75 -12.1274)" fill="#668F80"/>
<rect x="1204.23" y="41.8584" width="69.582" height="4" transform="rotate(135 1204.23 41.8584)" fill="#668F80"/>
<rect x="1210.03" y="46.8286" width="69.582" height="4" transform="rotate(135 1210.03 46.8286)" fill="#668F80"/>
<rect x="1159.03" y="-8.17139" width="69.582" height="4" transform="rotate(135 1159.03 -8.17139)" fill="#668F80"/>
<rect x="1147.33" y="19" width="48" height="13" rx="5" transform="rotate(45 1147.33 19)" fill="#F42272"/>
<rect x="1166.45" width="48" height="13" rx="5" transform="rotate(45 1166.45 0)" fill="#1E96FC"/>
<rect x="1128.19" y="38" width="48" height="13" rx="5" transform="rotate(45 1128.19 38)" fill="#1E96FC"/>
<circle cx="1200.5" cy="80.5" r="12.5" fill="#564154"/>
</g>
<g clip-path="url(#clip29)">
<rect width="80" height="80" transform="translate(1280) rotate(90)" fill="#F5E9E2"/>
<rect x="1292.12" y="53.7549" width="77.0011" height="4" transform="rotate(-135 1292.12 53.7549)" fill="#668F80"/>
<rect x="1238.14" y="84.2393" width="69.582" height="4" transform="rotate(-135 1238.14 84.2393)" fill="#668F80"/>
<rect x="1233.17" y="90.0312" width="69.582" height="4" transform="rotate(-135 1233.17 90.0312)" fill="#668F80"/>
<rect x="1288.17" y="39.0312" width="69.582" height="4" transform="rotate(-135 1288.17 39.0312)" fill="#668F80"/>
<rect x="1261" y="27.3242" width="48" height="13" rx="5" transform="rotate(135 1261 27.3242)" fill="#F42272"/>
<rect x="1280" y="46.457" width="48" height="13" rx="5" transform="rotate(135 1280 46.457)" fill="#1E96FC"/>
<rect x="1242" y="8.19141" width="48" height="13" rx="5" transform="rotate(135 1242 8.19141)" fill="#1E96FC"/>
<circle cx="1199.5" cy="80.5" r="12.5" transform="rotate(90 1199.5 80.5)" fill="#564154"/>
</g>
<g clip-path="url(#clip30)">
<rect width="80" height="80" transform="translate(1120 160) rotate(-90)" fill="#F5E9E2"/>
<rect x="1107.88" y="106.245" width="77.0011" height="4" transform="rotate(45 1107.88 106.245)" fill="#668F80"/>
<rect x="1161.86" y="75.7607" width="69.582" height="4" transform="rotate(45 1161.86 75.7607)" fill="#668F80"/>
<rect x="1166.83" y="69.9688" width="69.582" height="4" transform="rotate(45 1166.83 69.9688)" fill="#668F80"/>
<rect x="1111.83" y="120.969" width="69.582" height="4" transform="rotate(45 1111.83 120.969)" fill="#668F80"/>
<rect x="1139" y="132.676" width="48" height="13" rx="5" transform="rotate(-45 1139 132.676)" fill="#F42272"/>
<rect x="1120" y="113.543" width="48" height="13" rx="5" transform="rotate(-45 1120 113.543)" fill="#1E96FC"/>
<rect x="1158" y="151.809" width="48" height="13" rx="5" transform="rotate(-45 1158 151.809)" fill="#1E96FC"/>
<circle cx="1200.5" cy="79.5" r="12.5" transform="rotate(-90 1200.5 79.5)" fill="#564154"/>
</g>
<g clip-path="url(#clip31)">
<rect width="80" height="80" transform="translate(1280 160) rotate(-180)" fill="#F5E9E2"/>
<rect x="1226.25" y="172.127" width="77.0011" height="4" transform="rotate(-45 1226.25 172.127)" fill="#668F80"/>
<rect x="1195.77" y="118.142" width="69.582" height="4" transform="rotate(-45 1195.77 118.142)" fill="#668F80"/>
<rect x="1189.97" y="113.171" width="69.582" height="4" transform="rotate(-45 1189.97 113.171)" fill="#668F80"/>
<rect x="1240.97" y="168.171" width="69.582" height="4" transform="rotate(-45 1240.97 168.171)" fill="#668F80"/>
<rect x="1252.67" y="141" width="48" height="13" rx="5" transform="rotate(-135 1252.67 141)" fill="#F42272"/>
<rect x="1233.55" y="160" width="48" height="13" rx="5" transform="rotate(-135 1233.55 160)" fill="#1E96FC"/>
<rect x="1271.81" y="122" width="48" height="13" rx="5" transform="rotate(-135 1271.81 122)" fill="#1E96FC"/>
<circle cx="1199.5" cy="79.5" r="12.5" transform="rotate(-180 1199.5 79.5)" fill="#564154"/>
</g>
<g clip-path="url(#clip32)">
<rect width="80" height="80" transform="translate(1280)" fill="#F5E9E2"/>
<rect x="1333.75" y="-12.1274" width="77.0011" height="4" transform="rotate(135 1333.75 -12.1274)" fill="#668F80"/>
<rect x="1364.23" y="41.8584" width="69.582" height="4" transform="rotate(135 1364.23 41.8584)" fill="#668F80"/>
<rect x="1370.03" y="46.8286" width="69.582" height="4" transform="rotate(135 1370.03 46.8286)" fill="#668F80"/>
<rect x="1319.03" y="-8.17139" width="69.582" height="4" transform="rotate(135 1319.03 -8.17139)" fill="#668F80"/>
<rect x="1307.33" y="19" width="48" height="13" rx="5" transform="rotate(45 1307.33 19)" fill="#F42272"/>
<rect x="1326.45" width="48" height="13" rx="5" transform="rotate(45 1326.45 0)" fill="#1E96FC"/>
<rect x="1288.19" y="38" width="48" height="13" rx="5" transform="rotate(45 1288.19 38)" fill="#1E96FC"/>
<circle cx="1360.5" cy="80.5" r="12.5" fill="#564154"/>
</g>
<g clip-path="url(#clip33)">
<rect width="80" height="80" transform="translate(1440) rotate(90)" fill="#F5E9E2"/>
<rect x="1452.12" y="53.7549" width="77.0011" height="4" transform="rotate(-135 1452.12 53.7549)" fill="#668F80"/>
<rect x="1398.14" y="84.2393" width="69.582" height="4" transform="rotate(-135 1398.14 84.2393)" fill="#668F80"/>
<rect x="1393.17" y="90.0312" width="69.582" height="4" transform="rotate(-135 1393.17 90.0312)" fill="#668F80"/>
<rect x="1448.17" y="39.0312" width="69.582" height="4" transform="rotate(-135 1448.17 39.0312)" fill="#668F80"/>
<rect x="1421" y="27.3242" width="48" height="13" rx="5" transform="rotate(135 1421 27.3242)" fill="#F42272"/>
<rect x="1440" y="46.457" width="48" height="13" rx="5" transform="rotate(135 1440 46.457)" fill="#1E96FC"/>
<rect x="1402" y="8.19141" width="48" height="13" rx="5" transform="rotate(135 1402 8.19141)" fill="#1E96FC"/>
<circle cx="1359.5" cy="80.5" r="12.5" transform="rotate(90 1359.5 80.5)" fill="#564154"/>
</g>
<g clip-path="url(#clip34)">
<rect width="80" height="80" transform="translate(1280 160) rotate(-90)" fill="#F5E9E2"/>
<rect x="1267.88" y="106.245" width="77.0011" height="4" transform="rotate(45 1267.88 106.245)" fill="#668F80"/>
<rect x="1321.86" y="75.7607" width="69.582" height="4" transform="rotate(45 1321.86 75.7607)" fill="#668F80"/>
<rect x="1326.83" y="69.9688" width="69.582" height="4" transform="rotate(45 1326.83 69.9688)" fill="#668F80"/>
<rect x="1271.83" y="120.969" width="69.582" height="4" transform="rotate(45 1271.83 120.969)" fill="#668F80"/>
<rect x="1299" y="132.676" width="48" height="13" rx="5" transform="rotate(-45 1299 132.676)" fill="#F42272"/>
<rect x="1280" y="113.543" width="48" height="13" rx="5" transform="rotate(-45 1280 113.543)" fill="#1E96FC"/>
<rect x="1318" y="151.809" width="48" height="13" rx="5" transform="rotate(-45 1318 151.809)" fill="#1E96FC"/>
<circle cx="1360.5" cy="79.5" r="12.5" transform="rotate(-90 1360.5 79.5)" fill="#564154"/>
</g>
<g clip-path="url(#clip35)">
<rect width="80" height="80" transform="translate(1440 160) rotate(-180)" fill="#F5E9E2"/>
<rect x="1386.25" y="172.127" width="77.0011" height="4" transform="rotate(-45 1386.25 172.127)" fill="#668F80"/>
<rect x="1355.77" y="118.142" width="69.582" height="4" transform="rotate(-45 1355.77 118.142)" fill="#668F80"/>
<rect x="1349.97" y="113.171" width="69.582" height="4" transform="rotate(-45 1349.97 113.171)" fill="#668F80"/>
<rect x="1400.97" y="168.171" width="69.582" height="4" transform="rotate(-45 1400.97 168.171)" fill="#668F80"/>
<rect x="1412.67" y="141" width="48" height="13" rx="5" transform="rotate(-135 1412.67 141)" fill="#F42272"/>
<rect x="1393.55" y="160" width="48" height="13" rx="5" transform="rotate(-135 1393.55 160)" fill="#1E96FC"/>
<rect x="1431.81" y="122" width="48" height="13" rx="5" transform="rotate(-135 1431.81 122)" fill="#1E96FC"/>
<circle cx="1359.5" cy="79.5" r="12.5" transform="rotate(-180 1359.5 79.5)" fill="#564154"/>
</g>
<g clip-path="url(#clip36)">
<rect width="80" height="80" transform="translate(1440)" fill="#F5E9E2"/>
<rect x="1493.75" y="-12.1274" width="77.0011" height="4" transform="rotate(135 1493.75 -12.1274)" fill="#668F80"/>
<rect x="1524.23" y="41.8584" width="69.582" height="4" transform="rotate(135 1524.23 41.8584)" fill="#668F80"/>
<rect x="1530.03" y="46.8286" width="69.582" height="4" transform="rotate(135 1530.03 46.8286)" fill="#668F80"/>
<rect x="1479.03" y="-8.17139" width="69.582" height="4" transform="rotate(135 1479.03 -8.17139)" fill="#668F80"/>
<rect x="1467.33" y="19" width="48" height="13" rx="5" transform="rotate(45 1467.33 19)" fill="#F42272"/>
<rect x="1486.45" width="48" height="13" rx="5" transform="rotate(45 1486.45 0)" fill="#1E96FC"/>
<rect x="1448.19" y="38" width="48" height="13" rx="5" transform="rotate(45 1448.19 38)" fill="#1E96FC"/>
<circle cx="1520.5" cy="80.5" r="12.5" fill="#564154"/>
</g>
<g clip-path="url(#clip37)">
<rect width="80" height="80" transform="translate(1600) rotate(90)" fill="#F5E9E2"/>
<rect x="1612.12" y="53.7549" width="77.0011" height="4" transform="rotate(-135 1612.12 53.7549)" fill="#668F80"/>
<rect x="1558.14" y="84.2393" width="69.582" height="4" transform="rotate(-135 1558.14 84.2393)" fill="#668F80"/>
<rect x="1553.17" y="90.0312" width="69.582" height="4" transform="rotate(-135 1553.17 90.0312)" fill="#668F80"/>
<rect x="1608.17" y="39.0312" width="69.582" height="4" transform="rotate(-135 1608.17 39.0312)" fill="#668F80"/>
<rect x="1581" y="27.3242" width="48" height="13" rx="5" transform="rotate(135 1581 27.3242)" fill="#F42272"/>
<rect x="1600" y="46.457" width="48" height="13" rx="5" transform="rotate(135 1600 46.457)" fill="#1E96FC"/>
<rect x="1562" y="8.19141" width="48" height="13" rx="5" transform="rotate(135 1562 8.19141)" fill="#1E96FC"/>
<circle cx="1519.5" cy="80.5" r="12.5" transform="rotate(90 1519.5 80.5)" fill="#564154"/>
</g>
<g clip-path="url(#clip38)">
<rect width="80" height="80" transform="translate(1440 160) rotate(-90)" fill="#F5E9E2"/>
<rect x="1427.88" y="106.245" width="77.0011" height="4" transform="rotate(45 1427.88 106.245)" fill="#668F80"/>
<rect x="1481.86" y="75.7607" width="69.582" height="4" transform="rotate(45 1481.86 75.7607)" fill="#668F80"/>
<rect x="1486.83" y="69.9688" width="69.582" height="4" transform="rotate(45 1486.83 69.9688)" fill="#668F80"/>
<rect x="1431.83" y="120.969" width="69.582" height="4" transform="rotate(45 1431.83 120.969)" fill="#668F80"/>
<rect x="1459" y="132.676" width="48" height="13" rx="5" transform="rotate(-45 1459 132.676)" fill="#F42272"/>
<rect x="1440" y="113.543" width="48" height="13" rx="5" transform="rotate(-45 1440 113.543)" fill="#1E96FC"/>
<rect x="1478" y="151.809" width="48" height="13" rx="5" transform="rotate(-45 1478 151.809)" fill="#1E96FC"/>
<circle cx="1520.5" cy="79.5" r="12.5" transform="rotate(-90 1520.5 79.5)" fill="#564154"/>
</g>
<g clip-path="url(#clip39)">
<rect width="80" height="80" transform="translate(1600 160) rotate(-180)" fill="#F5E9E2"/>
<rect x="1546.25" y="172.127" width="77.0011" height="4" transform="rotate(-45 1546.25 172.127)" fill="#668F80"/>
<rect x="1515.77" y="118.142" width="69.582" height="4" transform="rotate(-45 1515.77 118.142)" fill="#668F80"/>
<rect x="1509.97" y="113.171" width="69.582" height="4" transform="rotate(-45 1509.97 113.171)" fill="#668F80"/>
<rect x="1560.97" y="168.171" width="69.582" height="4" transform="rotate(-45 1560.97 168.171)" fill="#668F80"/>
<rect x="1572.67" y="141" width="48" height="13" rx="5" transform="rotate(-135 1572.67 141)" fill="#F42272"/>
<rect x="1553.55" y="160" width="48" height="13" rx="5" transform="rotate(-135 1553.55 160)" fill="#1E96FC"/>
<rect x="1591.81" y="122" width="48" height="13" rx="5" transform="rotate(-135 1591.81 122)" fill="#1E96FC"/>
<circle cx="1519.5" cy="79.5" r="12.5" transform="rotate(-180 1519.5 79.5)" fill="#564154"/>
</g>
<g clip-path="url(#clip40)">
<rect width="80" height="80" transform="translate(1600)" fill="#F5E9E2"/>
<rect x="1653.75" y="-12.1274" width="77.0011" height="4" transform="rotate(135 1653.75 -12.1274)" fill="#668F80"/>
<rect x="1684.23" y="41.8584" width="69.582" height="4" transform="rotate(135 1684.23 41.8584)" fill="#668F80"/>
<rect x="1690.03" y="46.8286" width="69.582" height="4" transform="rotate(135 1690.03 46.8286)" fill="#668F80"/>
<rect x="1639.03" y="-8.17139" width="69.582" height="4" transform="rotate(135 1639.03 -8.17139)" fill="#668F80"/>
<rect x="1627.33" y="19" width="48" height="13" rx="5" transform="rotate(45 1627.33 19)" fill="#F42272"/>
<rect x="1646.45" width="48" height="13" rx="5" transform="rotate(45 1646.45 0)" fill="#1E96FC"/>
<rect x="1608.19" y="38" width="48" height="13" rx="5" transform="rotate(45 1608.19 38)" fill="#1E96FC"/>
<circle cx="1680.5" cy="80.5" r="12.5" fill="#564154"/>
</g>
<g clip-path="url(#clip41)">
<rect width="80" height="80" transform="translate(1760) rotate(90)" fill="#F5E9E2"/>
<rect x="1772.12" y="53.7549" width="77.0011" height="4" transform="rotate(-135 1772.12 53.7549)" fill="#668F80"/>
<rect x="1718.14" y="84.2393" width="69.582" height="4" transform="rotate(-135 1718.14 84.2393)" fill="#668F80"/>
<rect x="1713.17" y="90.0312" width="69.582" height="4" transform="rotate(-135 1713.17 90.0312)" fill="#668F80"/>
<rect x="1768.17" y="39.0312" width="69.582" height="4" transform="rotate(-135 1768.17 39.0312)" fill="#668F80"/>
<rect x="1741" y="27.3242" width="48" height="13" rx="5" transform="rotate(135 1741 27.3242)" fill="#F42272"/>
<rect x="1760" y="46.457" width="48" height="13" rx="5" transform="rotate(135 1760 46.457)" fill="#1E96FC"/>
<rect x="1722" y="8.19141" width="48" height="13" rx="5" transform="rotate(135 1722 8.19141)" fill="#1E96FC"/>
<circle cx="1679.5" cy="80.5" r="12.5" transform="rotate(90 1679.5 80.5)" fill="#564154"/>
</g>
<g clip-path="url(#clip42)">
<rect width="80" height="80" transform="translate(1600 160) rotate(-90)" fill="#F5E9E2"/>
<rect x="1587.88" y="106.245" width="77.0011" height="4" transform="rotate(45 1587.88 106.245)" fill="#668F80"/>
<rect x="1641.86" y="75.7607" width="69.582" height="4" transform="rotate(45 1641.86 75.7607)" fill="#668F80"/>
<rect x="1646.83" y="69.9688" width="69.582" height="4" transform="rotate(45 1646.83 69.9688)" fill="#668F80"/>
<rect x="1591.83" y="120.969" width="69.582" height="4" transform="rotate(45 1591.83 120.969)" fill="#668F80"/>
<rect x="1619" y="132.676" width="48" height="13" rx="5" transform="rotate(-45 1619 132.676)" fill="#F42272"/>
<rect x="1600" y="113.543" width="48" height="13" rx="5" transform="rotate(-45 1600 113.543)" fill="#1E96FC"/>
<rect x="1638" y="151.809" width="48" height="13" rx="5" transform="rotate(-45 1638 151.809)" fill="#1E96FC"/>
<circle cx="1680.5" cy="79.5" r="12.5" transform="rotate(-90 1680.5 79.5)" fill="#564154"/>
</g>
<g clip-path="url(#clip43)">
<rect width="80" height="80" transform="translate(1760 160) rotate(-180)" fill="#F5E9E2"/>
<rect x="1706.25" y="172.127" width="77.0011" height="4" transform="rotate(-45 1706.25 172.127)" fill="#668F80"/>
<rect x="1675.77" y="118.142" width="69.582" height="4" transform="rotate(-45 1675.77 118.142)" fill="#668F80"/>
<rect x="1669.97" y="113.171" width="69.582" height="4" transform="rotate(-45 1669.97 113.171)" fill="#668F80"/>
<rect x="1720.97" y="168.171" width="69.582" height="4" transform="rotate(-45 1720.97 168.171)" fill="#668F80"/>
<rect x="1732.67" y="141" width="48" height="13" rx="5" transform="rotate(-135 1732.67 141)" fill="#F42272"/>
<rect x="1713.55" y="160" width="48" height="13" rx="5" transform="rotate(-135 1713.55 160)" fill="#1E96FC"/>
<rect x="1751.81" y="122" width="48" height="13" rx="5" transform="rotate(-135 1751.81 122)" fill="#1E96FC"/>
<circle cx="1679.5" cy="79.5" r="12.5" transform="rotate(-180 1679.5 79.5)" fill="#564154"/>
</g>
<g clip-path="url(#clip44)">
<rect width="80" height="80" transform="translate(1760)" fill="#F5E9E2"/>
<rect x="1813.75" y="-12.1274" width="77.0011" height="4" transform="rotate(135 1813.75 -12.1274)" fill="#668F80"/>
<rect x="1844.23" y="41.8584" width="69.582" height="4" transform="rotate(135 1844.23 41.8584)" fill="#668F80"/>
<rect x="1850.03" y="46.8286" width="69.582" height="4" transform="rotate(135 1850.03 46.8286)" fill="#668F80"/>
<rect x="1799.03" y="-8.17139" width="69.582" height="4" transform="rotate(135 1799.03 -8.17139)" fill="#668F80"/>
<rect x="1787.33" y="19" width="48" height="13" rx="5" transform="rotate(45 1787.33 19)" fill="#F42272"/>
<rect x="1806.45" width="48" height="13" rx="5" transform="rotate(45 1806.45 0)" fill="#1E96FC"/>
<rect x="1768.19" y="38" width="48" height="13" rx="5" transform="rotate(45 1768.19 38)" fill="#1E96FC"/>
<circle cx="1840.5" cy="80.5" r="12.5" fill="#564154"/>
</g>
<g clip-path="url(#clip45)">
<rect width="80" height="80" transform="translate(1920) rotate(90)" fill="#F5E9E2"/>
<rect x="1932.12" y="53.7549" width="77.0011" height="4" transform="rotate(-135 1932.12 53.7549)" fill="#668F80"/>
<rect x="1878.14" y="84.2393" width="69.582" height="4" transform="rotate(-135 1878.14 84.2393)" fill="#668F80"/>
<rect x="1873.17" y="90.0312" width="69.582" height="4" transform="rotate(-135 1873.17 90.0312)" fill="#668F80"/>
<rect x="1928.17" y="39.0312" width="69.582" height="4" transform="rotate(-135 1928.17 39.0312)" fill="#668F80"/>
<rect x="1901" y="27.3242" width="48" height="13" rx="5" transform="rotate(135 1901 27.3242)" fill="#F42272"/>
<rect x="1920" y="46.457" width="48" height="13" rx="5" transform="rotate(135 1920 46.457)" fill="#1E96FC"/>
<rect x="1882" y="8.19141" width="48" height="13" rx="5" transform="rotate(135 1882 8.19141)" fill="#1E96FC"/>
<circle cx="1839.5" cy="80.5" r="12.5" transform="rotate(90 1839.5 80.5)" fill="#564154"/>
</g>
<g clip-path="url(#clip46)">
<rect width="80" height="80" transform="translate(1760 160) rotate(-90)" fill="#F5E9E2"/>
<rect x="1747.88" y="106.245" width="77.0011" height="4" transform="rotate(45 1747.88 106.245)" fill="#668F80"/>
<rect x="1801.86" y="75.7607" width="69.582" height="4" transform="rotate(45 1801.86 75.7607)" fill="#668F80"/>
<rect x="1806.83" y="69.9688" width="69.582" height="4" transform="rotate(45 1806.83 69.9688)" fill="#668F80"/>
<rect x="1751.83" y="120.969" width="69.582" height="4" transform="rotate(45 1751.83 120.969)" fill="#668F80"/>
<rect x="1779" y="132.676" width="48" height="13" rx="5" transform="rotate(-45 1779 132.676)" fill="#F42272"/>
<rect x="1760" y="113.543" width="48" height="13" rx="5" transform="rotate(-45 1760 113.543)" fill="#1E96FC"/>
<rect x="1798" y="151.809" width="48" height="13" rx="5" transform="rotate(-45 1798 151.809)" fill="#1E96FC"/>
<circle cx="1840.5" cy="79.5" r="12.5" transform="rotate(-90 1840.5 79.5)" fill="#564154"/>
</g>
<g clip-path="url(#clip47)">
<rect width="80" height="80" transform="translate(1920 160) rotate(-180)" fill="#F5E9E2"/>
<rect x="1866.25" y="172.127" width="77.0011" height="4" transform="rotate(-45 1866.25 172.127)" fill="#668F80"/>
<rect x="1835.77" y="118.142" width="69.582" height="4" transform="rotate(-45 1835.77 118.142)" fill="#668F80"/>
<rect x="1829.97" y="113.171" width="69.582" height="4" transform="rotate(-45 1829.97 113.171)" fill="#668F80"/>
<rect x="1880.97" y="168.171" width="69.582" height="4" transform="rotate(-45 1880.97 168.171)" fill="#668F80"/>
<rect x="1892.67" y="141" width="48" height="13" rx="5" transform="rotate(-135 1892.67 141)" fill="#F42272"/>
<rect x="1873.55" y="160" width="48" height="13" rx="5" transform="rotate(-135 1873.55 160)" fill="#1E96FC"/>
<rect x="1911.81" y="122" width="48" height="13" rx="5" transform="rotate(-135 1911.81 122)" fill="#1E96FC"/>
<circle cx="1839.5" cy="79.5" r="12.5" transform="rotate(-180 1839.5 79.5)" fill="#564154"/>
</g>
<g clip-path="url(#clip48)">
<rect width="80" height="80" transform="translate(1920)" fill="#F5E9E2"/>
<rect x="1973.75" y="-12.1274" width="77.0011" height="4" transform="rotate(135 1973.75 -12.1274)" fill="#668F80"/>
<rect x="2004.23" y="41.8584" width="69.582" height="4" transform="rotate(135 2004.23 41.8584)" fill="#668F80"/>
<rect x="2010.03" y="46.8286" width="69.582" height="4" transform="rotate(135 2010.03 46.8286)" fill="#668F80"/>
<rect x="1959.03" y="-8.17139" width="69.582" height="4" transform="rotate(135 1959.03 -8.17139)" fill="#668F80"/>
<rect x="1947.33" y="19" width="48" height="13" rx="5" transform="rotate(45 1947.33 19)" fill="#F42272"/>
<rect x="1966.45" width="48" height="13" rx="5" transform="rotate(45 1966.45 0)" fill="#1E96FC"/>
<rect x="1928.19" y="38" width="48" height="13" rx="5" transform="rotate(45 1928.19 38)" fill="#1E96FC"/>
<circle cx="2000.5" cy="80.5" r="12.5" fill="#564154"/>
</g>
<g clip-path="url(#clip49)">
<rect width="80" height="80" transform="translate(2080) rotate(90)" fill="#F5E9E2"/>
<rect x="2092.12" y="53.7549" width="77.0011" height="4" transform="rotate(-135 2092.12 53.7549)" fill="#668F80"/>
<rect x="2038.14" y="84.2393" width="69.582" height="4" transform="rotate(-135 2038.14 84.2393)" fill="#668F80"/>
<rect x="2033.17" y="90.0312" width="69.582" height="4" transform="rotate(-135 2033.17 90.0312)" fill="#668F80"/>
<rect x="2088.17" y="39.0312" width="69.582" height="4" transform="rotate(-135 2088.17 39.0312)" fill="#668F80"/>
<rect x="2061" y="27.3242" width="48" height="13" rx="5" transform="rotate(135 2061 27.3242)" fill="#F42272"/>
<rect x="2080" y="46.457" width="48" height="13" rx="5" transform="rotate(135 2080 46.457)" fill="#1E96FC"/>
<rect x="2042" y="8.19141" width="48" height="13" rx="5" transform="rotate(135 2042 8.19141)" fill="#1E96FC"/>
<circle cx="1999.5" cy="80.5" r="12.5" transform="rotate(90 1999.5 80.5)" fill="#564154"/>
</g>
<g clip-path="url(#clip50)">
<rect width="80" height="80" transform="translate(1920 160) rotate(-90)" fill="#F5E9E2"/>
<rect x="1907.88" y="106.245" width="77.0011" height="4" transform="rotate(45 1907.88 106.245)" fill="#668F80"/>
<rect x="1961.86" y="75.7607" width="69.582" height="4" transform="rotate(45 1961.86 75.7607)" fill="#668F80"/>
<rect x="1966.83" y="69.9688" width="69.582" height="4" transform="rotate(45 1966.83 69.9688)" fill="#668F80"/>
<rect x="1911.83" y="120.969" width="69.582" height="4" transform="rotate(45 1911.83 120.969)" fill="#668F80"/>
<rect x="1939" y="132.676" width="48" height="13" rx="5" transform="rotate(-45 1939 132.676)" fill="#F42272"/>
<rect x="1920" y="113.543" width="48" height="13" rx="5" transform="rotate(-45 1920 113.543)" fill="#1E96FC"/>
<rect x="1958" y="151.809" width="48" height="13" rx="5" transform="rotate(-45 1958 151.809)" fill="#1E96FC"/>
<circle cx="2000.5" cy="79.5" r="12.5" transform="rotate(-90 2000.5 79.5)" fill="#564154"/>
</g>
<g clip-path="url(#clip51)">
<rect width="80" height="80" transform="translate(2080 160) rotate(-180)" fill="#F5E9E2"/>
<rect x="2026.25" y="172.127" width="77.0011" height="4" transform="rotate(-45 2026.25 172.127)" fill="#668F80"/>
<rect x="1995.77" y="118.142" width="69.582" height="4" transform="rotate(-45 1995.77 118.142)" fill="#668F80"/>
<rect x="1989.97" y="113.171" width="69.582" height="4" transform="rotate(-45 1989.97 113.171)" fill="#668F80"/>
<rect x="2040.97" y="168.171" width="69.582" height="4" transform="rotate(-45 2040.97 168.171)" fill="#668F80"/>
<rect x="2052.67" y="141" width="48" height="13" rx="5" transform="rotate(-135 2052.67 141)" fill="#F42272"/>
<rect x="2033.55" y="160" width="48" height="13" rx="5" transform="rotate(-135 2033.55 160)" fill="#1E96FC"/>
<rect x="2071.81" y="122" width="48" height="13" rx="5" transform="rotate(-135 2071.81 122)" fill="#1E96FC"/>
<circle cx="1999.5" cy="79.5" r="12.5" transform="rotate(-180 1999.5 79.5)" fill="#564154"/>
</g>
<g clip-path="url(#clip52)">
<rect width="80" height="80" transform="translate(2080)" fill="#F5E9E2"/>
<rect x="2133.75" y="-12.1274" width="77.0011" height="4" transform="rotate(135 2133.75 -12.1274)" fill="#668F80"/>
<rect x="2164.23" y="41.8584" width="69.582" height="4" transform="rotate(135 2164.23 41.8584)" fill="#668F80"/>
<rect x="2170.03" y="46.8286" width="69.582" height="4" transform="rotate(135 2170.03 46.8286)" fill="#668F80"/>
<rect x="2119.03" y="-8.17139" width="69.582" height="4" transform="rotate(135 2119.03 -8.17139)" fill="#668F80"/>
<rect x="2107.33" y="19" width="48" height="13" rx="5" transform="rotate(45 2107.33 19)" fill="#F42272"/>
<rect x="2126.45" width="48" height="13" rx="5" transform="rotate(45 2126.45 0)" fill="#1E96FC"/>
<rect x="2088.19" y="38" width="48" height="13" rx="5" transform="rotate(45 2088.19 38)" fill="#1E96FC"/>
<circle cx="2160.5" cy="80.5" r="12.5" fill="#564154"/>
</g>
<g clip-path="url(#clip53)">
<rect width="80" height="80" transform="translate(2240) rotate(90)" fill="#F5E9E2"/>
<rect x="2252.12" y="53.7549" width="77.0011" height="4" transform="rotate(-135 2252.12 53.7549)" fill="#668F80"/>
<rect x="2198.14" y="84.2393" width="69.582" height="4" transform="rotate(-135 2198.14 84.2393)" fill="#668F80"/>
<rect x="2193.17" y="90.0312" width="69.582" height="4" transform="rotate(-135 2193.17 90.0312)" fill="#668F80"/>
<rect x="2248.17" y="39.0312" width="69.582" height="4" transform="rotate(-135 2248.17 39.0312)" fill="#668F80"/>
<rect x="2221" y="27.3242" width="48" height="13" rx="5" transform="rotate(135 2221 27.3242)" fill="#F42272"/>
<rect x="2240" y="46.457" width="48" height="13" rx="5" transform="rotate(135 2240 46.457)" fill="#1E96FC"/>
<rect x="2202" y="8.19141" width="48" height="13" rx="5" transform="rotate(135 2202 8.19141)" fill="#1E96FC"/>
<circle cx="2159.5" cy="80.5" r="12.5" transform="rotate(90 2159.5 80.5)" fill="#564154"/>
</g>
<g clip-path="url(#clip54)">
<rect width="80" height="80" transform="translate(2080 160) rotate(-90)" fill="#F5E9E2"/>
<rect x="2067.88" y="106.245" width="77.0011" height="4" transform="rotate(45 2067.88 106.245)" fill="#668F80"/>
<rect x="2121.86" y="75.7607" width="69.582" height="4" transform="rotate(45 2121.86 75.7607)" fill="#668F80"/>
<rect x="2126.83" y="69.9688" width="69.582" height="4" transform="rotate(45 2126.83 69.9688)" fill="#668F80"/>
<rect x="2071.83" y="120.969" width="69.582" height="4" transform="rotate(45 2071.83 120.969)" fill="#668F80"/>
<rect x="2099" y="132.676" width="48" height="13" rx="5" transform="rotate(-45 2099 132.676)" fill="#F42272"/>
<rect x="2080" y="113.543" width="48" height="13" rx="5" transform="rotate(-45 2080 113.543)" fill="#1E96FC"/>
<rect x="2118" y="151.809" width="48" height="13" rx="5" transform="rotate(-45 2118 151.809)" fill="#1E96FC"/>
<circle cx="2160.5" cy="79.5" r="12.5" transform="rotate(-90 2160.5 79.5)" fill="#564154"/>
</g>
<g clip-path="url(#clip55)">
<rect width="80" height="80" transform="translate(2240 160) rotate(-180)" fill="#F5E9E2"/>
<rect x="2186.25" y="172.127" width="77.0011" height="4" transform="rotate(-45 2186.25 172.127)" fill="#668F80"/>
<rect x="2155.77" y="118.142" width="69.582" height="4" transform="rotate(-45 2155.77 118.142)" fill="#668F80"/>
<rect x="2149.97" y="113.171" width="69.582" height="4" transform="rotate(-45 2149.97 113.171)" fill="#668F80"/>
<rect x="2200.97" y="168.171" width="69.582" height="4" transform="rotate(-45 2200.97 168.171)" fill="#668F80"/>
<rect x="2212.67" y="141" width="48" height="13" rx="5" transform="rotate(-135 2212.67 141)" fill="#F42272"/>
<rect x="2193.55" y="160" width="48" height="13" rx="5" transform="rotate(-135 2193.55 160)" fill="#1E96FC"/>
<rect x="2231.81" y="122" width="48" height="13" rx="5" transform="rotate(-135 2231.81 122)" fill="#1E96FC"/>
<circle cx="2159.5" cy="79.5" r="12.5" transform="rotate(-180 2159.5 79.5)" fill="#564154"/>
</g>
<g clip-path="url(#clip56)">
<rect width="80" height="80" transform="translate(2240)" fill="#F5E9E2"/>
<rect x="2293.75" y="-12.1274" width="77.0011" height="4" transform="rotate(135 2293.75 -12.1274)" fill="#668F80"/>
<rect x="2324.23" y="41.8584" width="69.582" height="4" transform="rotate(135 2324.23 41.8584)" fill="#668F80"/>
<rect x="2330.03" y="46.8286" width="69.582" height="4" transform="rotate(135 2330.03 46.8286)" fill="#668F80"/>
<rect x="2279.03" y="-8.17139" width="69.582" height="4" transform="rotate(135 2279.03 -8.17139)" fill="#668F80"/>
<rect x="2267.33" y="19" width="48" height="13" rx="5" transform="rotate(45 2267.33 19)" fill="#F42272"/>
<rect x="2286.45" width="48" height="13" rx="5" transform="rotate(45 2286.45 0)" fill="#1E96FC"/>
<rect x="2248.19" y="38" width="48" height="13" rx="5" transform="rotate(45 2248.19 38)" fill="#1E96FC"/>
<circle cx="2320.5" cy="80.5" r="12.5" fill="#564154"/>
</g>
<g clip-path="url(#clip57)">
<rect width="80" height="80" transform="translate(2400) rotate(90)" fill="#F5E9E2"/>
<rect x="2412.12" y="53.7549" width="77.0011" height="4" transform="rotate(-135 2412.12 53.7549)" fill="#668F80"/>
<rect x="2358.14" y="84.2393" width="69.582" height="4" transform="rotate(-135 2358.14 84.2393)" fill="#668F80"/>
<rect x="2353.17" y="90.0312" width="69.582" height="4" transform="rotate(-135 2353.17 90.0312)" fill="#668F80"/>
<rect x="2408.17" y="39.0312" width="69.582" height="4" transform="rotate(-135 2408.17 39.0312)" fill="#668F80"/>
<rect x="2381" y="27.3242" width="48" height="13" rx="5" transform="rotate(135 2381 27.3242)" fill="#F42272"/>
<rect x="2400" y="46.457" width="48" height="13" rx="5" transform="rotate(135 2400 46.457)" fill="#1E96FC"/>
<rect x="2362" y="8.19141" width="48" height="13" rx="5" transform="rotate(135 2362 8.19141)" fill="#1E96FC"/>
<circle cx="2319.5" cy="80.5" r="12.5" transform="rotate(90 2319.5 80.5)" fill="#564154"/>
</g>
<g clip-path="url(#clip58)">
<rect width="80" height="80" transform="translate(2240 160) rotate(-90)" fill="#F5E9E2"/>
<rect x="2227.88" y="106.245" width="77.0011" height="4" transform="rotate(45 2227.88 106.245)" fill="#668F80"/>
<rect x="2281.86" y="75.7607" width="69.582" height="4" transform="rotate(45 2281.86 75.7607)" fill="#668F80"/>
<rect x="2286.83" y="69.9688" width="69.582" height="4" transform="rotate(45 2286.83 69.9688)" fill="#668F80"/>
<rect x="2231.83" y="120.969" width="69.582" height="4" transform="rotate(45 2231.83 120.969)" fill="#668F80"/>
<rect x="2259" y="132.676" width="48" height="13" rx="5" transform="rotate(-45 2259 132.676)" fill="#F42272"/>
<rect x="2240" y="113.543" width="48" height="13" rx="5" transform="rotate(-45 2240 113.543)" fill="#1E96FC"/>
<rect x="2278" y="151.809" width="48" height="13" rx="5" transform="rotate(-45 2278 151.809)" fill="#1E96FC"/>
<circle cx="2320.5" cy="79.5" r="12.5" transform="rotate(-90 2320.5 79.5)" fill="#564154"/>
</g>
<g clip-path="url(#clip59)">
<rect width="80" height="80" transform="translate(2400 160) rotate(-180)" fill="#F5E9E2"/>
<rect x="2346.25" y="172.127" width="77.0011" height="4" transform="rotate(-45 2346.25 172.127)" fill="#668F80"/>
<rect x="2315.77" y="118.142" width="69.582" height="4" transform="rotate(-45 2315.77 118.142)" fill="#668F80"/>
<rect x="2309.97" y="113.171" width="69.582" height="4" transform="rotate(-45 2309.97 113.171)" fill="#668F80"/>
<rect x="2360.97" y="168.171" width="69.582" height="4" transform="rotate(-45 2360.97 168.171)" fill="#668F80"/>
<rect x="2372.67" y="141" width="48" height="13" rx="5" transform="rotate(-135 2372.67 141)" fill="#F42272"/>
<rect x="2353.55" y="160" width="48" height="13" rx="5" transform="rotate(-135 2353.55 160)" fill="#1E96FC"/>
<rect x="2391.81" y="122" width="48" height="13" rx="5" transform="rotate(-135 2391.81 122)" fill="#1E96FC"/>
<circle cx="2319.5" cy="79.5" r="12.5" transform="rotate(-180 2319.5 79.5)" fill="#564154"/>
</g>
<g clip-path="url(#clip60)">
<rect width="80" height="80" transform="translate(2400)" fill="#F5E9E2"/>
<rect x="2453.75" y="-12.1274" width="77.0011" height="4" transform="rotate(135 2453.75 -12.1274)" fill="#668F80"/>
<rect x="2484.23" y="41.8584" width="69.582" height="4" transform="rotate(135 2484.23 41.8584)" fill="#668F80"/>
<rect x="2490.03" y="46.8286" width="69.582" height="4" transform="rotate(135 2490.03 46.8286)" fill="#668F80"/>
<rect x="2439.03" y="-8.17139" width="69.582" height="4" transform="rotate(135 2439.03 -8.17139)" fill="#668F80"/>
<rect x="2427.33" y="19" width="48" height="13" rx="5" transform="rotate(45 2427.33 19)" fill="#F42272"/>
<rect x="2446.45" width="48" height="13" rx="5" transform="rotate(45 2446.45 0)" fill="#1E96FC"/>
<rect x="2408.19" y="38" width="48" height="13" rx="5" transform="rotate(45 2408.19 38)" fill="#1E96FC"/>
<circle cx="2480.5" cy="80.5" r="12.5" fill="#564154"/>
</g>
<g clip-path="url(#clip61)">
<rect width="80" height="80" transform="translate(2560) rotate(90)" fill="#F5E9E2"/>
<rect x="2572.12" y="53.7549" width="77.0011" height="4" transform="rotate(-135 2572.12 53.7549)" fill="#668F80"/>
<rect x="2518.14" y="84.2393" width="69.582" height="4" transform="rotate(-135 2518.14 84.2393)" fill="#668F80"/>
<rect x="2513.17" y="90.0312" width="69.582" height="4" transform="rotate(-135 2513.17 90.0312)" fill="#668F80"/>
<rect x="2568.17" y="39.0312" width="69.582" height="4" transform="rotate(-135 2568.17 39.0312)" fill="#668F80"/>
<rect x="2541" y="27.3242" width="48" height="13" rx="5" transform="rotate(135 2541 27.3242)" fill="#F42272"/>
<rect x="2560" y="46.457" width="48" height="13" rx="5" transform="rotate(135 2560 46.457)" fill="#1E96FC"/>
<rect x="2522" y="8.19141" width="48" height="13" rx="5" transform="rotate(135 2522 8.19141)" fill="#1E96FC"/>
<circle cx="2479.5" cy="80.5" r="12.5" transform="rotate(90 2479.5 80.5)" fill="#564154"/>
</g>
<g clip-path="url(#clip62)">
<rect width="80" height="80" transform="translate(2400 160) rotate(-90)" fill="#F5E9E2"/>
<rect x="2387.88" y="106.245" width="77.0011" height="4" transform="rotate(45 2387.88 106.245)" fill="#668F80"/>
<rect x="2441.86" y="75.7607" width="69.582" height="4" transform="rotate(45 2441.86 75.7607)" fill="#668F80"/>
<rect x="2446.83" y="69.9688" width="69.582" height="4" transform="rotate(45 2446.83 69.9688)" fill="#668F80"/>
<rect x="2391.83" y="120.969" width="69.582" height="4" transform="rotate(45 2391.83 120.969)" fill="#668F80"/>
<rect x="2419" y="132.676" width="48" height="13" rx="5" transform="rotate(-45 2419 132.676)" fill="#F42272"/>
<rect x="2400" y="113.543" width="48" height="13" rx="5" transform="rotate(-45 2400 113.543)" fill="#1E96FC"/>
<rect x="2438" y="151.809" width="48" height="13" rx="5" transform="rotate(-45 2438 151.809)" fill="#1E96FC"/>
<circle cx="2480.5" cy="79.5" r="12.5" transform="rotate(-90 2480.5 79.5)" fill="#564154"/>
</g>
<g clip-path="url(#clip63)">
<rect width="80" height="80" transform="translate(2560 160) rotate(-180)" fill="#F5E9E2"/>
<rect x="2506.25" y="172.127" width="77.0011" height="4" transform="rotate(-45 2506.25 172.127)" fill="#668F80"/>
<rect x="2475.77" y="118.142" width="69.582" height="4" transform="rotate(-45 2475.77 118.142)" fill="#668F80"/>
<rect x="2469.97" y="113.171" width="69.582" height="4" transform="rotate(-45 2469.97 113.171)" fill="#668F80"/>
<rect x="2520.97" y="168.171" width="69.582" height="4" transform="rotate(-45 2520.97 168.171)" fill="#668F80"/>
<rect x="2532.67" y="141" width="48" height="13" rx="5" transform="rotate(-135 2532.67 141)" fill="#F42272"/>
<rect x="2513.55" y="160" width="48" height="13" rx="5" transform="rotate(-135 2513.55 160)" fill="#1E96FC"/>
<rect x="2551.81" y="122" width="48" height="13" rx="5" transform="rotate(-135 2551.81 122)" fill="#1E96FC"/>
<circle cx="2479.5" cy="79.5" r="12.5" transform="rotate(-180 2479.5 79.5)" fill="#564154"/>
</g>
<g clip-path="url(#clip64)">
<rect width="80" height="80" transform="translate(2560)" fill="#F5E9E2"/>
<rect x="2613.75" y="-12.1274" width="77.0011" height="4" transform="rotate(135 2613.75 -12.1274)" fill="#668F80"/>
<rect x="2644.23" y="41.8584" width="69.582" height="4" transform="rotate(135 2644.23 41.8584)" fill="#668F80"/>
<rect x="2650.03" y="46.8286" width="69.582" height="4" transform="rotate(135 2650.03 46.8286)" fill="#668F80"/>
<rect x="2599.03" y="-8.17139" width="69.582" height="4" transform="rotate(135 2599.03 -8.17139)" fill="#668F80"/>
<rect x="2587.33" y="19" width="48" height="13" rx="5" transform="rotate(45 2587.33 19)" fill="#F42272"/>
<rect x="2606.45" width="48" height="13" rx="5" transform="rotate(45 2606.45 0)" fill="#1E96FC"/>
<rect x="2568.19" y="38" width="48" height="13" rx="5" transform="rotate(45 2568.19 38)" fill="#1E96FC"/>
<circle cx="2640.5" cy="80.5" r="12.5" fill="#564154"/>
</g>
<g clip-path="url(#clip65)">
<rect width="80" height="80" transform="translate(2720) rotate(90)" fill="#F5E9E2"/>
<rect x="2732.12" y="53.7549" width="77.0011" height="4" transform="rotate(-135 2732.12 53.7549)" fill="#668F80"/>
<rect x="2678.14" y="84.2393" width="69.582" height="4" transform="rotate(-135 2678.14 84.2393)" fill="#668F80"/>
<rect x="2673.17" y="90.0312" width="69.582" height="4" transform="rotate(-135 2673.17 90.0312)" fill="#668F80"/>
<rect x="2728.17" y="39.0312" width="69.582" height="4" transform="rotate(-135 2728.17 39.0312)" fill="#668F80"/>
<rect x="2701" y="27.3242" width="48" height="13" rx="5" transform="rotate(135 2701 27.3242)" fill="#F42272"/>
<rect x="2720" y="46.457" width="48" height="13" rx="5" transform="rotate(135 2720 46.457)" fill="#1E96FC"/>
<rect x="2682" y="8.19141" width="48" height="13" rx="5" transform="rotate(135 2682 8.19141)" fill="#1E96FC"/>
<circle cx="2639.5" cy="80.5" r="12.5" transform="rotate(90 2639.5 80.5)" fill="#564154"/>
</g>
<g clip-path="url(#clip66)">
<rect width="80" height="80" transform="translate(2560 160) rotate(-90)" fill="#F5E9E2"/>
<rect x="2547.88" y="106.245" width="77.0011" height="4" transform="rotate(45 2547.88 106.245)" fill="#668F80"/>
<rect x="2601.86" y="75.7607" width="69.582" height="4" transform="rotate(45 2601.86 75.7607)" fill="#668F80"/>
<rect x="2606.83" y="69.9688" width="69.582" height="4" transform="rotate(45 2606.83 69.9688)" fill="#668F80"/>
<rect x="2551.83" y="120.969" width="69.582" height="4" transform="rotate(45 2551.83 120.969)" fill="#668F80"/>
<rect x="2579" y="132.676" width="48" height="13" rx="5" transform="rotate(-45 2579 132.676)" fill="#F42272"/>
<rect x="2560" y="113.543" width="48" height="13" rx="5" transform="rotate(-45 2560 113.543)" fill="#1E96FC"/>
<rect x="2598" y="151.809" width="48" height="13" rx="5" transform="rotate(-45 2598 151.809)" fill="#1E96FC"/>
<circle cx="2640.5" cy="79.5" r="12.5" transform="rotate(-90 2640.5 79.5)" fill="#564154"/>
</g>
<g clip-path="url(#clip67)">
<rect width="80" height="80" transform="translate(2720 160) rotate(-180)" fill="#F5E9E2"/>
<rect x="2666.25" y="172.127" width="77.0011" height="4" transform="rotate(-45 2666.25 172.127)" fill="#668F80"/>
<rect x="2635.77" y="118.142" width="69.582" height="4" transform="rotate(-45 2635.77 118.142)" fill="#668F80"/>
<rect x="2629.97" y="113.171" width="69.582" height="4" transform="rotate(-45 2629.97 113.171)" fill="#668F80"/>
<rect x="2680.97" y="168.171" width="69.582" height="4" transform="rotate(-45 2680.97 168.171)" fill="#668F80"/>
<rect x="2692.67" y="141" width="48" height="13" rx="5" transform="rotate(-135 2692.67 141)" fill="#F42272"/>
<rect x="2673.55" y="160" width="48" height="13" rx="5" transform="rotate(-135 2673.55 160)" fill="#1E96FC"/>
<rect x="2711.81" y="122" width="48" height="13" rx="5" transform="rotate(-135 2711.81 122)" fill="#1E96FC"/>
<circle cx="2639.5" cy="79.5" r="12.5" transform="rotate(-180 2639.5 79.5)" fill="#564154"/>
</g>
<g clip-path="url(#clip68)">
<rect width="80" height="80" transform="translate(2720)" fill="#F5E9E2"/>
<rect x="2773.75" y="-12.1274" width="77.0011" height="4" transform="rotate(135 2773.75 -12.1274)" fill="#668F80"/>
<rect x="2804.23" y="41.8584" width="69.582" height="4" transform="rotate(135 2804.23 41.8584)" fill="#668F80"/>
<rect x="2810.03" y="46.8286" width="69.582" height="4" transform="rotate(135 2810.03 46.8286)" fill="#668F80"/>
<rect x="2759.03" y="-8.17139" width="69.582" height="4" transform="rotate(135 2759.03 -8.17139)" fill="#668F80"/>
<rect x="2747.33" y="19" width="48" height="13" rx="5" transform="rotate(45 2747.33 19)" fill="#F42272"/>
<rect x="2766.45" width="48" height="13" rx="5" transform="rotate(45 2766.45 0)" fill="#1E96FC"/>
<rect x="2728.19" y="38" width="48" height="13" rx="5" transform="rotate(45 2728.19 38)" fill="#1E96FC"/>
<circle cx="2800.5" cy="80.5" r="12.5" fill="#564154"/>
</g>
<g clip-path="url(#clip69)">
<rect width="80" height="80" transform="translate(2880) rotate(90)" fill="#F5E9E2"/>
<rect x="2892.12" y="53.7549" width="77.0011" height="4" transform="rotate(-135 2892.12 53.7549)" fill="#668F80"/>
<rect x="2838.14" y="84.2393" width="69.582" height="4" transform="rotate(-135 2838.14 84.2393)" fill="#668F80"/>
<rect x="2833.17" y="90.0312" width="69.582" height="4" transform="rotate(-135 2833.17 90.0312)" fill="#668F80"/>
<rect x="2888.17" y="39.0312" width="69.582" height="4" transform="rotate(-135 2888.17 39.0312)" fill="#668F80"/>
<rect x="2861" y="27.3242" width="48" height="13" rx="5" transform="rotate(135 2861 27.3242)" fill="#F42272"/>
<rect x="2880" y="46.457" width="48" height="13" rx="5" transform="rotate(135 2880 46.457)" fill="#1E96FC"/>
<rect x="2842" y="8.19141" width="48" height="13" rx="5" transform="rotate(135 2842 8.19141)" fill="#1E96FC"/>
<circle cx="2799.5" cy="80.5" r="12.5" transform="rotate(90 2799.5 80.5)" fill="#564154"/>
</g>
<g clip-path="url(#clip70)">
<rect width="80" height="80" transform="translate(2720 160) rotate(-90)" fill="#F5E9E2"/>
<rect x="2707.88" y="106.245" width="77.0011" height="4" transform="rotate(45 2707.88 106.245)" fill="#668F80"/>
<rect x="2761.86" y="75.7607" width="69.582" height="4" transform="rotate(45 2761.86 75.7607)" fill="#668F80"/>
<rect x="2766.83" y="69.9688" width="69.582" height="4" transform="rotate(45 2766.83 69.9688)" fill="#668F80"/>
<rect x="2711.83" y="120.969" width="69.582" height="4" transform="rotate(45 2711.83 120.969)" fill="#668F80"/>
<rect x="2739" y="132.676" width="48" height="13" rx="5" transform="rotate(-45 2739 132.676)" fill="#F42272"/>
<rect x="2720" y="113.543" width="48" height="13" rx="5" transform="rotate(-45 2720 113.543)" fill="#1E96FC"/>
<rect x="2758" y="151.809" width="48" height="13" rx="5" transform="rotate(-45 2758 151.809)" fill="#1E96FC"/>
<circle cx="2800.5" cy="79.5" r="12.5" transform="rotate(-90 2800.5 79.5)" fill="#564154"/>
</g>
<g clip-path="url(#clip71)">
<rect width="80" height="80" transform="translate(2880 160) rotate(-180)" fill="#F5E9E2"/>
<rect x="2826.25" y="172.127" width="77.0011" height="4" transform="rotate(-45 2826.25 172.127)" fill="#668F80"/>
<rect x="2795.77" y="118.142" width="69.582" height="4" transform="rotate(-45 2795.77 118.142)" fill="#668F80"/>
<rect x="2789.97" y="113.171" width="69.582" height="4" transform="rotate(-45 2789.97 113.171)" fill="#668F80"/>
<rect x="2840.97" y="168.171" width="69.582" height="4" transform="rotate(-45 2840.97 168.171)" fill="#668F80"/>
<rect x="2852.67" y="141" width="48" height="13" rx="5" transform="rotate(-135 2852.67 141)" fill="#F42272"/>
<rect x="2833.55" y="160" width="48" height="13" rx="5" transform="rotate(-135 2833.55 160)" fill="#1E96FC"/>
<rect x="2871.81" y="122" width="48" height="13" rx="5" transform="rotate(-135 2871.81 122)" fill="#1E96FC"/>
<circle cx="2799.5" cy="79.5" r="12.5" transform="rotate(-180 2799.5 79.5)" fill="#564154"/>
</g>
<g clip-path="url(#clip72)">
<rect width="80" height="80" transform="translate(2880)" fill="#F5E9E2"/>
<rect x="2933.75" y="-12.1274" width="77.0011" height="4" transform="rotate(135 2933.75 -12.1274)" fill="#668F80"/>
<rect x="2964.23" y="41.8584" width="69.582" height="4" transform="rotate(135 2964.23 41.8584)" fill="#668F80"/>
<rect x="2970.03" y="46.8286" width="69.582" height="4" transform="rotate(135 2970.03 46.8286)" fill="#668F80"/>
<rect x="2919.03" y="-8.17139" width="69.582" height="4" transform="rotate(135 2919.03 -8.17139)" fill="#668F80"/>
<rect x="2907.33" y="19" width="48" height="13" rx="5" transform="rotate(45 2907.33 19)" fill="#F42272"/>
<rect x="2926.45" width="48" height="13" rx="5" transform="rotate(45 2926.45 0)" fill="#1E96FC"/>
<rect x="2888.19" y="38" width="48" height="13" rx="5" transform="rotate(45 2888.19 38)" fill="#1E96FC"/>
<circle cx="2960.5" cy="80.5" r="12.5" fill="#564154"/>
</g>
<g clip-path="url(#clip73)">
<rect width="80" height="80" transform="translate(3040) rotate(90)" fill="#F5E9E2"/>
<rect x="3052.12" y="53.7549" width="77.0011" height="4" transform="rotate(-135 3052.12 53.7549)" fill="#668F80"/>
<rect x="2998.14" y="84.2393" width="69.582" height="4" transform="rotate(-135 2998.14 84.2393)" fill="#668F80"/>
<rect x="2993.17" y="90.0312" width="69.582" height="4" transform="rotate(-135 2993.17 90.0312)" fill="#668F80"/>
<rect x="3048.17" y="39.0312" width="69.582" height="4" transform="rotate(-135 3048.17 39.0312)" fill="#668F80"/>
<rect x="3021" y="27.3242" width="48" height="13" rx="5" transform="rotate(135 3021 27.3242)" fill="#F42272"/>
<rect x="3040" y="46.457" width="48" height="13" rx="5" transform="rotate(135 3040 46.457)" fill="#1E96FC"/>
<rect x="3002" y="8.19141" width="48" height="13" rx="5" transform="rotate(135 3002 8.19141)" fill="#1E96FC"/>
<circle cx="2959.5" cy="80.5" r="12.5" transform="rotate(90 2959.5 80.5)" fill="#564154"/>
</g>
<g clip-path="url(#clip74)">
<rect width="80" height="80" transform="translate(2880 160) rotate(-90)" fill="#F5E9E2"/>
<rect x="2867.88" y="106.245" width="77.0011" height="4" transform="rotate(45 2867.88 106.245)" fill="#668F80"/>
<rect x="2921.86" y="75.7607" width="69.582" height="4" transform="rotate(45 2921.86 75.7607)" fill="#668F80"/>
<rect x="2926.83" y="69.9688" width="69.582" height="4" transform="rotate(45 2926.83 69.9688)" fill="#668F80"/>
<rect x="2871.83" y="120.969" width="69.582" height="4" transform="rotate(45 2871.83 120.969)" fill="#668F80"/>
<rect x="2899" y="132.676" width="48" height="13" rx="5" transform="rotate(-45 2899 132.676)" fill="#F42272"/>
<rect x="2880" y="113.543" width="48" height="13" rx="5" transform="rotate(-45 2880 113.543)" fill="#1E96FC"/>
<rect x="2918" y="151.809" width="48" height="13" rx="5" transform="rotate(-45 2918 151.809)" fill="#1E96FC"/>
<circle cx="2960.5" cy="79.5" r="12.5" transform="rotate(-90 2960.5 79.5)" fill="#564154"/>
</g>
<g clip-path="url(#clip75)">
<rect width="80" height="80" transform="translate(3040 160) rotate(-180)" fill="#F5E9E2"/>
<rect x="2986.25" y="172.127" width="77.0011" height="4" transform="rotate(-45 2986.25 172.127)" fill="#668F80"/>
<rect x="2955.77" y="118.142" width="69.582" height="4" transform="rotate(-45 2955.77 118.142)" fill="#668F80"/>
<rect x="2949.97" y="113.171" width="69.582" height="4" transform="rotate(-45 2949.97 113.171)" fill="#668F80"/>
<rect x="3000.97" y="168.171" width="69.582" height="4" transform="rotate(-45 3000.97 168.171)" fill="#668F80"/>
<rect x="3012.67" y="141" width="48" height="13" rx="5" transform="rotate(-135 3012.67 141)" fill="#F42272"/>
<rect x="2993.55" y="160" width="48" height="13" rx="5" transform="rotate(-135 2993.55 160)" fill="#1E96FC"/>
<rect x="3031.81" y="122" width="48" height="13" rx="5" transform="rotate(-135 3031.81 122)" fill="#1E96FC"/>
<circle cx="2959.5" cy="79.5" r="12.5" transform="rotate(-180 2959.5 79.5)" fill="#564154"/>
</g>
<g clip-path="url(#clip76)">
<rect width="80" height="80" transform="translate(3040)" fill="#F5E9E2"/>
<rect x="3093.75" y="-12.1274" width="77.0011" height="4" transform="rotate(135 3093.75 -12.1274)" fill="#668F80"/>
<rect x="3124.23" y="41.8584" width="69.582" height="4" transform="rotate(135 3124.23 41.8584)" fill="#668F80"/>
<rect x="3130.03" y="46.8286" width="69.582" height="4" transform="rotate(135 3130.03 46.8286)" fill="#668F80"/>
<rect x="3079.03" y="-8.17139" width="69.582" height="4" transform="rotate(135 3079.03 -8.17139)" fill="#668F80"/>
<rect x="3067.33" y="19" width="48" height="13" rx="5" transform="rotate(45 3067.33 19)" fill="#F42272"/>
<rect x="3086.45" width="48" height="13" rx="5" transform="rotate(45 3086.45 0)" fill="#1E96FC"/>
<rect x="3048.19" y="38" width="48" height="13" rx="5" transform="rotate(45 3048.19 38)" fill="#1E96FC"/>
<circle cx="3120.5" cy="80.5" r="12.5" fill="#564154"/>
</g>
<g clip-path="url(#clip77)">
<rect width="80" height="80" transform="translate(3200) rotate(90)" fill="#F5E9E2"/>
<rect x="3212.12" y="53.7549" width="77.0011" height="4" transform="rotate(-135 3212.12 53.7549)" fill="#668F80"/>
<rect x="3158.14" y="84.2393" width="69.582" height="4" transform="rotate(-135 3158.14 84.2393)" fill="#668F80"/>
<rect x="3153.17" y="90.0312" width="69.582" height="4" transform="rotate(-135 3153.17 90.0312)" fill="#668F80"/>
<rect x="3208.17" y="39.0312" width="69.582" height="4" transform="rotate(-135 3208.17 39.0312)" fill="#668F80"/>
<rect x="3181" y="27.3242" width="48" height="13" rx="5" transform="rotate(135 3181 27.3242)" fill="#F42272"/>
<rect x="3200" y="46.457" width="48" height="13" rx="5" transform="rotate(135 3200 46.457)" fill="#1E96FC"/>
<rect x="3162" y="8.19141" width="48" height="13" rx="5" transform="rotate(135 3162 8.19141)" fill="#1E96FC"/>
<circle cx="3119.5" cy="80.5" r="12.5" transform="rotate(90 3119.5 80.5)" fill="#564154"/>
</g>
<g clip-path="url(#clip78)">
<rect width="80" height="80" transform="translate(3040 160) rotate(-90)" fill="#F5E9E2"/>
<rect x="3027.88" y="106.245" width="77.0011" height="4" transform="rotate(45 3027.88 106.245)" fill="#668F80"/>
<rect x="3081.86" y="75.7607" width="69.582" height="4" transform="rotate(45 3081.86 75.7607)" fill="#668F80"/>
<rect x="3086.83" y="69.9688" width="69.582" height="4" transform="rotate(45 3086.83 69.9688)" fill="#668F80"/>
<rect x="3031.83" y="120.969" width="69.582" height="4" transform="rotate(45 3031.83 120.969)" fill="#668F80"/>
<rect x="3059" y="132.676" width="48" height="13" rx="5" transform="rotate(-45 3059 132.676)" fill="#F42272"/>
<rect x="3040" y="113.543" width="48" height="13" rx="5" transform="rotate(-45 3040 113.543)" fill="#1E96FC"/>
<rect x="3078" y="151.809" width="48" height="13" rx="5" transform="rotate(-45 3078 151.809)" fill="#1E96FC"/>
<circle cx="3120.5" cy="79.5" r="12.5" transform="rotate(-90 3120.5 79.5)" fill="#564154"/>
</g>
<g clip-path="url(#clip79)">
<rect width="80" height="80" transform="translate(3200 160) rotate(-180)" fill="#F5E9E2"/>
<rect x="3146.25" y="172.127" width="77.0011" height="4" transform="rotate(-45 3146.25 172.127)" fill="#668F80"/>
<rect x="3115.77" y="118.142" width="69.582" height="4" transform="rotate(-45 3115.77 118.142)" fill="#668F80"/>
<rect x="3109.97" y="113.171" width="69.582" height="4" transform="rotate(-45 3109.97 113.171)" fill="#668F80"/>
<rect x="3160.97" y="168.171" width="69.582" height="4" transform="rotate(-45 3160.97 168.171)" fill="#668F80"/>
<rect x="3172.67" y="141" width="48" height="13" rx="5" transform="rotate(-135 3172.67 141)" fill="#F42272"/>
<rect x="3153.55" y="160" width="48" height="13" rx="5" transform="rotate(-135 3153.55 160)" fill="#1E96FC"/>
<rect x="3191.81" y="122" width="48" height="13" rx="5" transform="rotate(-135 3191.81 122)" fill="#1E96FC"/>
<circle cx="3119.5" cy="79.5" r="12.5" transform="rotate(-180 3119.5 79.5)" fill="#564154"/>
</g>
<defs>
<clipPath id="clip0">
<rect width="80" height="80" fill="white"/>
</clipPath>
<clipPath id="clip1">
<rect width="80" height="80" fill="white" transform="translate(160) rotate(90)"/>
</clipPath>
<clipPath id="clip2">
<rect width="80" height="80" fill="white" transform="translate(0 160) rotate(-90)"/>
</clipPath>
<clipPath id="clip3">
<rect width="80" height="80" fill="white" transform="translate(160 160) rotate(-180)"/>
</clipPath>
<clipPath id="clip4">
<rect width="80" height="80" fill="white" transform="translate(160)"/>
</clipPath>
<clipPath id="clip5">
<rect width="80" height="80" fill="white" transform="translate(320) rotate(90)"/>
</clipPath>
<clipPath id="clip6">
<rect width="80" height="80" fill="white" transform="translate(160 160) rotate(-90)"/>
</clipPath>
<clipPath id="clip7">
<rect width="80" height="80" fill="white" transform="translate(320 160) rotate(-180)"/>
</clipPath>
<clipPath id="clip8">
<rect width="80" height="80" fill="white" transform="translate(320)"/>
</clipPath>
<clipPath id="clip9">
<rect width="80" height="80" fill="white" transform="translate(480) rotate(90)"/>
</clipPath>
<clipPath id="clip10">
<rect width="80" height="80" fill="white" transform="translate(320 160) rotate(-90)"/>
</clipPath>
<clipPath id="clip11">
<rect width="80" height="80" fill="white" transform="translate(480 160) rotate(-180)"/>
</clipPath>
<clipPath id="clip12">
<rect width="80" height="80" fill="white" transform="translate(480)"/>
</clipPath>
<clipPath id="clip13">
<rect width="80" height="80" fill="white" transform="translate(640) rotate(90)"/>
</clipPath>
<clipPath id="clip14">
<rect width="80" height="80" fill="white" transform="translate(480 160) rotate(-90)"/>
</clipPath>
<clipPath id="clip15">
<rect width="80" height="80" fill="white" transform="translate(640 160) rotate(-180)"/>
</clipPath>
<clipPath id="clip16">
<rect width="80" height="80" fill="white" transform="translate(640)"/>
</clipPath>
<clipPath id="clip17">
<rect width="80" height="80" fill="white" transform="translate(800) rotate(90)"/>
</clipPath>
<clipPath id="clip18">
<rect width="80" height="80" fill="white" transform="translate(640 160) rotate(-90)"/>
</clipPath>
<clipPath id="clip19">
<rect width="80" height="80" fill="white" transform="translate(800 160) rotate(-180)"/>
</clipPath>
<clipPath id="clip20">
<rect width="80" height="80" fill="white" transform="translate(800)"/>
</clipPath>
<clipPath id="clip21">
<rect width="80" height="80" fill="white" transform="translate(960) rotate(90)"/>
</clipPath>
<clipPath id="clip22">
<rect width="80" height="80" fill="white" transform="translate(800 160) rotate(-90)"/>
</clipPath>
<clipPath id="clip23">
<rect width="80" height="80" fill="white" transform="translate(960 160) rotate(-180)"/>
</clipPath>
<clipPath id="clip24">
<rect width="80" height="80" fill="white" transform="translate(960)"/>
</clipPath>
<clipPath id="clip25">
<rect width="80" height="80" fill="white" transform="translate(1120) rotate(90)"/>
</clipPath>
<clipPath id="clip26">
<rect width="80" height="80" fill="white" transform="translate(960 160) rotate(-90)"/>
</clipPath>
<clipPath id="clip27">
<rect width="80" height="80" fill="white" transform="translate(1120 160) rotate(-180)"/>
</clipPath>
<clipPath id="clip28">
<rect width="80" height="80" fill="white" transform="translate(1120)"/>
</clipPath>
<clipPath id="clip29">
<rect width="80" height="80" fill="white" transform="translate(1280) rotate(90)"/>
</clipPath>
<clipPath id="clip30">
<rect width="80" height="80" fill="white" transform="translate(1120 160) rotate(-90)"/>
</clipPath>
<clipPath id="clip31">
<rect width="80" height="80" fill="white" transform="translate(1280 160) rotate(-180)"/>
</clipPath>
<clipPath id="clip32">
<rect width="80" height="80" fill="white" transform="translate(1280)"/>
</clipPath>
<clipPath id="clip33">
<rect width="80" height="80" fill="white" transform="translate(1440) rotate(90)"/>
</clipPath>
<clipPath id="clip34">
<rect width="80" height="80" fill="white" transform="translate(1280 160) rotate(-90)"/>
</clipPath>
<clipPath id="clip35">
<rect width="80" height="80" fill="white" transform="translate(1440 160) rotate(-180)"/>
</clipPath>
<clipPath id="clip36">
<rect width="80" height="80" fill="white" transform="translate(1440)"/>
</clipPath>
<clipPath id="clip37">
<rect width="80" height="80" fill="white" transform="translate(1600) rotate(90)"/>
</clipPath>
<clipPath id="clip38">
<rect width="80" height="80" fill="white" transform="translate(1440 160) rotate(-90)"/>
</clipPath>
<clipPath id="clip39">
<rect width="80" height="80" fill="white" transform="translate(1600 160) rotate(-180)"/>
</clipPath>
<clipPath id="clip40">
<rect width="80" height="80" fill="white" transform="translate(1600)"/>
</clipPath>
<clipPath id="clip41">
<rect width="80" height="80" fill="white" transform="translate(1760) rotate(90)"/>
</clipPath>
<clipPath id="clip42">
<rect width="80" height="80" fill="white" transform="translate(1600 160) rotate(-90)"/>
</clipPath>
<clipPath id="clip43">
<rect width="80" height="80" fill="white" transform="translate(1760 160) rotate(-180)"/>
</clipPath>
<clipPath id="clip44">
<rect width="80" height="80" fill="white" transform="translate(1760)"/>
</clipPath>
<clipPath id="clip45">
<rect width="80" height="80" fill="white" transform="translate(1920) rotate(90)"/>
</clipPath>
<clipPath id="clip46">
<rect width="80" height="80" fill="white" transform="translate(1760 160) rotate(-90)"/>
</clipPath>
<clipPath id="clip47">
<rect width="80" height="80" fill="white" transform="translate(1920 160) rotate(-180)"/>
</clipPath>
<clipPath id="clip48">
<rect width="80" height="80" fill="white" transform="translate(1920)"/>
</clipPath>
<clipPath id="clip49">
<rect width="80" height="80" fill="white" transform="translate(2080) rotate(90)"/>
</clipPath>
<clipPath id="clip50">
<rect width="80" height="80" fill="white" transform="translate(1920 160) rotate(-90)"/>
</clipPath>
<clipPath id="clip51">
<rect width="80" height="80" fill="white" transform="translate(2080 160) rotate(-180)"/>
</clipPath>
<clipPath id="clip52">
<rect width="80" height="80" fill="white" transform="translate(2080)"/>
</clipPath>
<clipPath id="clip53">
<rect width="80" height="80" fill="white" transform="translate(2240) rotate(90)"/>
</clipPath>
<clipPath id="clip54">
<rect width="80" height="80" fill="white" transform="translate(2080 160) rotate(-90)"/>
</clipPath>
<clipPath id="clip55">
<rect width="80" height="80" fill="white" transform="translate(2240 160) rotate(-180)"/>
</clipPath>
<clipPath id="clip56">
<rect width="80" height="80" fill="white" transform="translate(2240)"/>
</clipPath>
<clipPath id="clip57">
<rect width="80" height="80" fill="white" transform="translate(2400) rotate(90)"/>
</clipPath>
<clipPath id="clip58">
<rect width="80" height="80" fill="white" transform="translate(2240 160) rotate(-90)"/>
</clipPath>
<clipPath id="clip59">
<rect width="80" height="80" fill="white" transform="translate(2400 160) rotate(-180)"/>
</clipPath>
<clipPath id="clip60">
<rect width="80" height="80" fill="white" transform="translate(2400)"/>
</clipPath>
<clipPath id="clip61">
<rect width="80" height="80" fill="white" transform="translate(2560) rotate(90)"/>
</clipPath>
<clipPath id="clip62">
<rect width="80" height="80" fill="white" transform="translate(2400 160) rotate(-90)"/>
</clipPath>
<clipPath id="clip63">
<rect width="80" height="80" fill="white" transform="translate(2560 160) rotate(-180)"/>
</clipPath>
<clipPath id="clip64">
<rect width="80" height="80" fill="white" transform="translate(2560)"/>
</clipPath>
<clipPath id="clip65">
<rect width="80" height="80" fill="white" transform="translate(2720) rotate(90)"/>
</clipPath>
<clipPath id="clip66">
<rect width="80" height="80" fill="white" transform="translate(2560 160) rotate(-90)"/>
</clipPath>
<clipPath id="clip67">
<rect width="80" height="80" fill="white" transform="translate(2720 160) rotate(-180)"/>
</clipPath>
<clipPath id="clip68">
<rect width="80" height="80" fill="white" transform="translate(2720)"/>
</clipPath>
<clipPath id="clip69">
<rect width="80" height="80" fill="white" transform="translate(2880) rotate(90)"/>
</clipPath>
<clipPath id="clip70">
<rect width="80" height="80" fill="white" transform="translate(2720 160) rotate(-90)"/>
</clipPath>
<clipPath id="clip71">
<rect width="80" height="80" fill="white" transform="translate(2880 160) rotate(-180)"/>
</clipPath>
<clipPath id="clip72">
<rect width="80" height="80" fill="white" transform="translate(2880)"/>
</clipPath>
<clipPath id="clip73">
<rect width="80" height="80" fill="white" transform="translate(3040) rotate(90)"/>
</clipPath>
<clipPath id="clip74">
<rect width="80" height="80" fill="white" transform="translate(2880 160) rotate(-90)"/>
</clipPath>
<clipPath id="clip75">
<rect width="80" height="80" fill="white" transform="translate(3040 160) rotate(-180)"/>
</clipPath>
<clipPath id="clip76">
<rect width="80" height="80" fill="white" transform="translate(3040)"/>
</clipPath>
<clipPath id="clip77">
<rect width="80" height="80" fill="white" transform="translate(3200) rotate(90)"/>
</clipPath>
<clipPath id="clip78">
<rect width="80" height="80" fill="white" transform="translate(3040 160) rotate(-90)"/>
</clipPath>
<clipPath id="clip79">
<rect width="80" height="80" fill="white" transform="translate(3200 160) rotate(-180)"/>
</clipPath>
</defs>
</svg>
