<svg width="1600" height="160" viewBox="0 0 1600 160" fill="none" xmlns="http://www.w3.org/2000/svg">
<g clip-path="url(#clip0)">
<rect width="80" height="80" fill="#F5E9E2"/>
<rect x="53.75" y="-12.1274" width="77.0011" height="4" transform="rotate(135 53.75 -12.1274)" fill="#668F80"/>
<rect x="84.2344" y="41.8584" width="69.582" height="4" transform="rotate(135 84.2344 41.8584)" fill="#668F80"/>
<rect x="90.0312" y="46.8286" width="69.582" height="4" transform="rotate(135 90.0312 46.8286)" fill="#668F80"/>
<rect x="39.0312" y="-8.17139" width="69.582" height="4" transform="rotate(135 39.0312 -8.17139)" fill="#668F80"/>
<rect x="27.3281" y="19" width="48" height="13" rx="5" transform="rotate(45 27.3281 19)" fill="#F42272"/>
<rect x="46.4531" width="48" height="13" rx="5" transform="rotate(45 46.4531 0)" fill="#1E96FC"/>
<rect x="8.1875" y="38" width="48" height="13" rx="5" transform="rotate(45 8.1875 38)" fill="#1E96FC"/>
<circle cx="80.5" cy="80.5" r="12.5" fill="#564154"/>
</g>
<g clip-path="url(#clip1)">
<rect width="80" height="80" transform="translate(160) rotate(90)" fill="#F5E9E2"/>
<rect x="172.125" y="53.7549" width="77.0011" height="4" transform="rotate(-135 172.125 53.7549)" fill="#668F80"/>
<rect x="118.141" y="84.2393" width="69.582" height="4" transform="rotate(-135 118.141 84.2393)" fill="#668F80"/>
<rect x="113.172" y="90.0312" width="69.582" height="4" transform="rotate(-135 113.172 90.0312)" fill="#668F80"/>
<rect x="168.172" y="39.0312" width="69.582" height="4" transform="rotate(-135 168.172 39.0312)" fill="#668F80"/>
<rect x="141" y="27.3242" width="48" height="13" rx="5" transform="rotate(135 141 27.3242)" fill="#F42272"/>
<rect x="160" y="46.457" width="48" height="13" rx="5" transform="rotate(135 160 46.457)" fill="#1E96FC"/>
<rect x="122" y="8.19141" width="48" height="13" rx="5" transform="rotate(135 122 8.19141)" fill="#1E96FC"/>
<circle cx="79.5" cy="80.5" r="12.5" transform="rotate(90 79.5 80.5)" fill="#564154"/>
</g>
<g clip-path="url(#clip2)">
<rect width="80" height="80" transform="translate(0 160) rotate(-90)" fill="#F5E9E2"/>
<rect x="-12.125" y="106.245" width="77.0011" height="4" transform="rotate(45 -12.125 106.245)" fill="#668F80"/>
<rect x="41.8594" y="75.7607" width="69.582" height="4" transform="rotate(45 41.8594 75.7607)" fill="#668F80"/>
<rect x="46.8281" y="69.9688" width="69.582" height="4" transform="rotate(45 46.8281 69.9688)" fill="#668F80"/>
<rect x="-8.17188" y="120.969" width="69.582" height="4" transform="rotate(45 -8.17188 120.969)" fill="#668F80"/>
<rect x="19" y="132.676" width="48" height="13" rx="5" transform="rotate(-45 19 132.676)" fill="#F42272"/>
<rect y="113.543" width="48" height="13" rx="5" transform="rotate(-45 0 113.543)" fill="#1E96FC"/>
<rect x="38" y="151.809" width="48" height="13" rx="5" transform="rotate(-45 38 151.809)" fill="#1E96FC"/>
<circle cx="80.5" cy="79.5" r="12.5" transform="rotate(-90 80.5 79.5)" fill="#564154"/>
</g>
<g clip-path="url(#clip3)">
<rect width="80" height="80" transform="translate(160 160) rotate(-180)" fill="#F5E9E2"/>
<rect x="106.25" y="172.127" width="77.0011" height="4" transform="rotate(-45 106.25 172.127)" fill="#668F80"/>
<rect x="75.7656" y="118.142" width="69.582" height="4" transform="rotate(-45 75.7656 118.142)" fill="#668F80"/>
<rect x="69.9688" y="113.171" width="69.582" height="4" transform="rotate(-45 69.9688 113.171)" fill="#668F80"/>
<rect x="120.969" y="168.171" width="69.582" height="4" transform="rotate(-45 120.969 168.171)" fill="#668F80"/>
<rect x="132.672" y="141" width="48" height="13" rx="5" transform="rotate(-135 132.672 141)" fill="#F42272"/>
<rect x="113.547" y="160" width="48" height="13" rx="5" transform="rotate(-135 113.547 160)" fill="#1E96FC"/>
<rect x="151.812" y="122" width="48" height="13" rx="5" transform="rotate(-135 151.812 122)" fill="#1E96FC"/>
<circle cx="79.5" cy="79.5" r="12.5" transform="rotate(-180 79.5 79.5)" fill="#564154"/>
</g>
<g clip-path="url(#clip4)">
<rect width="80" height="80" transform="translate(160)" fill="#F5E9E2"/>
<rect x="213.75" y="-12.1274" width="77.0011" height="4" transform="rotate(135 213.75 -12.1274)" fill="#668F80"/>
<rect x="244.234" y="41.8584" width="69.582" height="4" transform="rotate(135 244.234 41.8584)" fill="#668F80"/>
<rect x="250.031" y="46.8286" width="69.582" height="4" transform="rotate(135 250.031 46.8286)" fill="#668F80"/>
<rect x="199.031" y="-8.17139" width="69.582" height="4" transform="rotate(135 199.031 -8.17139)" fill="#668F80"/>
<rect x="187.328" y="19" width="48" height="13" rx="5" transform="rotate(45 187.328 19)" fill="#F42272"/>
<rect x="206.453" width="48" height="13" rx="5" transform="rotate(45 206.453 0)" fill="#1E96FC"/>
<rect x="168.188" y="38" width="48" height="13" rx="5" transform="rotate(45 168.188 38)" fill="#1E96FC"/>
<circle cx="240.5" cy="80.5" r="12.5" fill="#564154"/>
</g>
<g clip-path="url(#clip5)">
<rect width="80" height="80" transform="translate(320) rotate(90)" fill="#F5E9E2"/>
<rect x="332.125" y="53.7549" width="77.0011" height="4" transform="rotate(-135 332.125 53.7549)" fill="#668F80"/>
<rect x="278.141" y="84.2393" width="69.582" height="4" transform="rotate(-135 278.141 84.2393)" fill="#668F80"/>
<rect x="273.172" y="90.0312" width="69.582" height="4" transform="rotate(-135 273.172 90.0312)" fill="#668F80"/>
<rect x="328.172" y="39.0312" width="69.582" height="4" transform="rotate(-135 328.172 39.0312)" fill="#668F80"/>
<rect x="301" y="27.3242" width="48" height="13" rx="5" transform="rotate(135 301 27.3242)" fill="#F42272"/>
<rect x="320" y="46.457" width="48" height="13" rx="5" transform="rotate(135 320 46.457)" fill="#1E96FC"/>
<rect x="282" y="8.19141" width="48" height="13" rx="5" transform="rotate(135 282 8.19141)" fill="#1E96FC"/>
<circle cx="239.5" cy="80.5" r="12.5" transform="rotate(90 239.5 80.5)" fill="#564154"/>
</g>
<g clip-path="url(#clip6)">
<rect width="80" height="80" transform="translate(160 160) rotate(-90)" fill="#F5E9E2"/>
<rect x="147.875" y="106.245" width="77.0011" height="4" transform="rotate(45 147.875 106.245)" fill="#668F80"/>
<rect x="201.859" y="75.7607" width="69.582" height="4" transform="rotate(45 201.859 75.7607)" fill="#668F80"/>
<rect x="206.828" y="69.9688" width="69.582" height="4" transform="rotate(45 206.828 69.9688)" fill="#668F80"/>
<rect x="151.828" y="120.969" width="69.582" height="4" transform="rotate(45 151.828 120.969)" fill="#668F80"/>
<rect x="179" y="132.676" width="48" height="13" rx="5" transform="rotate(-45 179 132.676)" fill="#F42272"/>
<rect x="160" y="113.543" width="48" height="13" rx="5" transform="rotate(-45 160 113.543)" fill="#1E96FC"/>
<rect x="198" y="151.809" width="48" height="13" rx="5" transform="rotate(-45 198 151.809)" fill="#1E96FC"/>
<circle cx="240.5" cy="79.5" r="12.5" transform="rotate(-90 240.5 79.5)" fill="#564154"/>
</g>
<g clip-path="url(#clip7)">
<rect width="80" height="80" transform="translate(320 160) rotate(-180)" fill="#F5E9E2"/>
<rect x="266.25" y="172.127" width="77.0011" height="4" transform="rotate(-45 266.25 172.127)" fill="#668F80"/>
<rect x="235.766" y="118.142" width="69.582" height="4" transform="rotate(-45 235.766 118.142)" fill="#668F80"/>
<rect x="229.969" y="113.171" width="69.582" height="4" transform="rotate(-45 229.969 113.171)" fill="#668F80"/>
<rect x="280.969" y="168.171" width="69.582" height="4" transform="rotate(-45 280.969 168.171)" fill="#668F80"/>
<rect x="292.672" y="141" width="48" height="13" rx="5" transform="rotate(-135 292.672 141)" fill="#F42272"/>
<rect x="273.547" y="160" width="48" height="13" rx="5" transform="rotate(-135 273.547 160)" fill="#1E96FC"/>
<rect x="311.812" y="122" width="48" height="13" rx="5" transform="rotate(-135 311.812 122)" fill="#1E96FC"/>
<circle cx="239.5" cy="79.5" r="12.5" transform="rotate(-180 239.5 79.5)" fill="#564154"/>
</g>
<g clip-path="url(#clip8)">
<rect width="80" height="80" transform="translate(320)" fill="#F5E9E2"/>
<rect x="373.75" y="-12.1274" width="77.0011" height="4" transform="rotate(135 373.75 -12.1274)" fill="#668F80"/>
<rect x="404.234" y="41.8584" width="69.582" height="4" transform="rotate(135 404.234 41.8584)" fill="#668F80"/>
<rect x="410.031" y="46.8286" width="69.582" height="4" transform="rotate(135 410.031 46.8286)" fill="#668F80"/>
<rect x="359.031" y="-8.17139" width="69.582" height="4" transform="rotate(135 359.031 -8.17139)" fill="#668F80"/>
<rect x="347.328" y="19" width="48" height="13" rx="5" transform="rotate(45 347.328 19)" fill="#F42272"/>
<rect x="366.453" width="48" height="13" rx="5" transform="rotate(45 366.453 0)" fill="#1E96FC"/>
<rect x="328.188" y="38" width="48" height="13" rx="5" transform="rotate(45 328.188 38)" fill="#1E96FC"/>
<circle cx="400.5" cy="80.5" r="12.5" fill="#564154"/>
</g>
<g clip-path="url(#clip9)">
<rect width="80" height="80" transform="translate(480) rotate(90)" fill="#F5E9E2"/>
<rect x="492.125" y="53.7549" width="77.0011" height="4" transform="rotate(-135 492.125 53.7549)" fill="#668F80"/>
<rect x="438.141" y="84.2393" width="69.582" height="4" transform="rotate(-135 438.141 84.2393)" fill="#668F80"/>
<rect x="433.172" y="90.0312" width="69.582" height="4" transform="rotate(-135 433.172 90.0312)" fill="#668F80"/>
<rect x="488.172" y="39.0312" width="69.582" height="4" transform="rotate(-135 488.172 39.0312)" fill="#668F80"/>
<rect x="461" y="27.3242" width="48" height="13" rx="5" transform="rotate(135 461 27.3242)" fill="#F42272"/>
<rect x="480" y="46.457" width="48" height="13" rx="5" transform="rotate(135 480 46.457)" fill="#1E96FC"/>
<rect x="442" y="8.19141" width="48" height="13" rx="5" transform="rotate(135 442 8.19141)" fill="#1E96FC"/>
<circle cx="399.5" cy="80.5" r="12.5" transform="rotate(90 399.5 80.5)" fill="#564154"/>
</g>
<g clip-path="url(#clip10)">
<rect width="80" height="80" transform="translate(320 160) rotate(-90)" fill="#F5E9E2"/>
<rect x="307.875" y="106.245" width="77.0011" height="4" transform="rotate(45 307.875 106.245)" fill="#668F80"/>
<rect x="361.859" y="75.7607" width="69.582" height="4" transform="rotate(45 361.859 75.7607)" fill="#668F80"/>
<rect x="366.828" y="69.9688" width="69.582" height="4" transform="rotate(45 366.828 69.9688)" fill="#668F80"/>
<rect x="311.828" y="120.969" width="69.582" height="4" transform="rotate(45 311.828 120.969)" fill="#668F80"/>
<rect x="339" y="132.676" width="48" height="13" rx="5" transform="rotate(-45 339 132.676)" fill="#F42272"/>
<rect x="320" y="113.543" width="48" height="13" rx="5" transform="rotate(-45 320 113.543)" fill="#1E96FC"/>
<rect x="358" y="151.809" width="48" height="13" rx="5" transform="rotate(-45 358 151.809)" fill="#1E96FC"/>
<circle cx="400.5" cy="79.5" r="12.5" transform="rotate(-90 400.5 79.5)" fill="#564154"/>
</g>
<g clip-path="url(#clip11)">
<rect width="80" height="80" transform="translate(480 160) rotate(-180)" fill="#F5E9E2"/>
<rect x="426.25" y="172.127" width="77.0011" height="4" transform="rotate(-45 426.25 172.127)" fill="#668F80"/>
<rect x="395.766" y="118.142" width="69.582" height="4" transform="rotate(-45 395.766 118.142)" fill="#668F80"/>
<rect x="389.969" y="113.171" width="69.582" height="4" transform="rotate(-45 389.969 113.171)" fill="#668F80"/>
<rect x="440.969" y="168.171" width="69.582" height="4" transform="rotate(-45 440.969 168.171)" fill="#668F80"/>
<rect x="452.672" y="141" width="48" height="13" rx="5" transform="rotate(-135 452.672 141)" fill="#F42272"/>
<rect x="433.547" y="160" width="48" height="13" rx="5" transform="rotate(-135 433.547 160)" fill="#1E96FC"/>
<rect x="471.812" y="122" width="48" height="13" rx="5" transform="rotate(-135 471.812 122)" fill="#1E96FC"/>
<circle cx="399.5" cy="79.5" r="12.5" transform="rotate(-180 399.5 79.5)" fill="#564154"/>
</g>
<g clip-path="url(#clip12)">
<rect width="80" height="80" transform="translate(480)" fill="#F5E9E2"/>
<rect x="533.75" y="-12.1274" width="77.0011" height="4" transform="rotate(135 533.75 -12.1274)" fill="#668F80"/>
<rect x="564.234" y="41.8584" width="69.582" height="4" transform="rotate(135 564.234 41.8584)" fill="#668F80"/>
<rect x="570.031" y="46.8286" width="69.582" height="4" transform="rotate(135 570.031 46.8286)" fill="#668F80"/>
<rect x="519.031" y="-8.17139" width="69.582" height="4" transform="rotate(135 519.031 -8.17139)" fill="#668F80"/>
<rect x="507.328" y="19" width="48" height="13" rx="5" transform="rotate(45 507.328 19)" fill="#F42272"/>
<rect x="526.453" width="48" height="13" rx="5" transform="rotate(45 526.453 0)" fill="#1E96FC"/>
<rect x="488.188" y="38" width="48" height="13" rx="5" transform="rotate(45 488.188 38)" fill="#1E96FC"/>
<circle cx="560.5" cy="80.5" r="12.5" fill="#564154"/>
</g>
<g clip-path="url(#clip13)">
<rect width="80" height="80" transform="translate(640) rotate(90)" fill="#F5E9E2"/>
<rect x="652.125" y="53.7549" width="77.0011" height="4" transform="rotate(-135 652.125 53.7549)" fill="#668F80"/>
<rect x="598.141" y="84.2393" width="69.582" height="4" transform="rotate(-135 598.141 84.2393)" fill="#668F80"/>
<rect x="593.172" y="90.0312" width="69.582" height="4" transform="rotate(-135 593.172 90.0312)" fill="#668F80"/>
<rect x="648.172" y="39.0312" width="69.582" height="4" transform="rotate(-135 648.172 39.0312)" fill="#668F80"/>
<rect x="621" y="27.3242" width="48" height="13" rx="5" transform="rotate(135 621 27.3242)" fill="#F42272"/>
<rect x="640" y="46.457" width="48" height="13" rx="5" transform="rotate(135 640 46.457)" fill="#1E96FC"/>
<rect x="602" y="8.19141" width="48" height="13" rx="5" transform="rotate(135 602 8.19141)" fill="#1E96FC"/>
<circle cx="559.5" cy="80.5" r="12.5" transform="rotate(90 559.5 80.5)" fill="#564154"/>
</g>
<g clip-path="url(#clip14)">
<rect width="80" height="80" transform="translate(480 160) rotate(-90)" fill="#F5E9E2"/>
<rect x="467.875" y="106.245" width="77.0011" height="4" transform="rotate(45 467.875 106.245)" fill="#668F80"/>
<rect x="521.859" y="75.7607" width="69.582" height="4" transform="rotate(45 521.859 75.7607)" fill="#668F80"/>
<rect x="526.828" y="69.9688" width="69.582" height="4" transform="rotate(45 526.828 69.9688)" fill="#668F80"/>
<rect x="471.828" y="120.969" width="69.582" height="4" transform="rotate(45 471.828 120.969)" fill="#668F80"/>
<rect x="499" y="132.676" width="48" height="13" rx="5" transform="rotate(-45 499 132.676)" fill="#F42272"/>
<rect x="480" y="113.543" width="48" height="13" rx="5" transform="rotate(-45 480 113.543)" fill="#1E96FC"/>
<rect x="518" y="151.809" width="48" height="13" rx="5" transform="rotate(-45 518 151.809)" fill="#1E96FC"/>
<circle cx="560.5" cy="79.5" r="12.5" transform="rotate(-90 560.5 79.5)" fill="#564154"/>
</g>
<g clip-path="url(#clip15)">
<rect width="80" height="80" transform="translate(640 160) rotate(-180)" fill="#F5E9E2"/>
<rect x="586.25" y="172.127" width="77.0011" height="4" transform="rotate(-45 586.25 172.127)" fill="#668F80"/>
<rect x="555.766" y="118.142" width="69.582" height="4" transform="rotate(-45 555.766 118.142)" fill="#668F80"/>
<rect x="549.969" y="113.171" width="69.582" height="4" transform="rotate(-45 549.969 113.171)" fill="#668F80"/>
<rect x="600.969" y="168.171" width="69.582" height="4" transform="rotate(-45 600.969 168.171)" fill="#668F80"/>
<rect x="612.672" y="141" width="48" height="13" rx="5" transform="rotate(-135 612.672 141)" fill="#F42272"/>
<rect x="593.547" y="160" width="48" height="13" rx="5" transform="rotate(-135 593.547 160)" fill="#1E96FC"/>
<rect x="631.812" y="122" width="48" height="13" rx="5" transform="rotate(-135 631.812 122)" fill="#1E96FC"/>
<circle cx="559.5" cy="79.5" r="12.5" transform="rotate(-180 559.5 79.5)" fill="#564154"/>
</g>
<g clip-path="url(#clip16)">
<rect width="80" height="80" transform="translate(640)" fill="#F5E9E2"/>
<rect x="693.75" y="-12.1274" width="77.0011" height="4" transform="rotate(135 693.75 -12.1274)" fill="#668F80"/>
<rect x="724.234" y="41.8584" width="69.582" height="4" transform="rotate(135 724.234 41.8584)" fill="#668F80"/>
<rect x="730.031" y="46.8286" width="69.582" height="4" transform="rotate(135 730.031 46.8286)" fill="#668F80"/>
<rect x="679.031" y="-8.17139" width="69.582" height="4" transform="rotate(135 679.031 -8.17139)" fill="#668F80"/>
<rect x="667.328" y="19" width="48" height="13" rx="5" transform="rotate(45 667.328 19)" fill="#F42272"/>
<rect x="686.453" width="48" height="13" rx="5" transform="rotate(45 686.453 0)" fill="#1E96FC"/>
<rect x="648.188" y="38" width="48" height="13" rx="5" transform="rotate(45 648.188 38)" fill="#1E96FC"/>
<circle cx="720.5" cy="80.5" r="12.5" fill="#564154"/>
</g>
<g clip-path="url(#clip17)">
<rect width="80" height="80" transform="translate(800) rotate(90)" fill="#F5E9E2"/>
<rect x="812.125" y="53.7549" width="77.0011" height="4" transform="rotate(-135 812.125 53.7549)" fill="#668F80"/>
<rect x="758.141" y="84.2393" width="69.582" height="4" transform="rotate(-135 758.141 84.2393)" fill="#668F80"/>
<rect x="753.172" y="90.0312" width="69.582" height="4" transform="rotate(-135 753.172 90.0312)" fill="#668F80"/>
<rect x="808.172" y="39.0312" width="69.582" height="4" transform="rotate(-135 808.172 39.0312)" fill="#668F80"/>
<rect x="781" y="27.3242" width="48" height="13" rx="5" transform="rotate(135 781 27.3242)" fill="#F42272"/>
<rect x="800" y="46.457" width="48" height="13" rx="5" transform="rotate(135 800 46.457)" fill="#1E96FC"/>
<rect x="762" y="8.19141" width="48" height="13" rx="5" transform="rotate(135 762 8.19141)" fill="#1E96FC"/>
<circle cx="719.5" cy="80.5" r="12.5" transform="rotate(90 719.5 80.5)" fill="#564154"/>
</g>
<g clip-path="url(#clip18)">
<rect width="80" height="80" transform="translate(640 160) rotate(-90)" fill="#F5E9E2"/>
<rect x="627.875" y="106.245" width="77.0011" height="4" transform="rotate(45 627.875 106.245)" fill="#668F80"/>
<rect x="681.859" y="75.7607" width="69.582" height="4" transform="rotate(45 681.859 75.7607)" fill="#668F80"/>
<rect x="686.828" y="69.9688" width="69.582" height="4" transform="rotate(45 686.828 69.9688)" fill="#668F80"/>
<rect x="631.828" y="120.969" width="69.582" height="4" transform="rotate(45 631.828 120.969)" fill="#668F80"/>
<rect x="659" y="132.676" width="48" height="13" rx="5" transform="rotate(-45 659 132.676)" fill="#F42272"/>
<rect x="640" y="113.543" width="48" height="13" rx="5" transform="rotate(-45 640 113.543)" fill="#1E96FC"/>
<rect x="678" y="151.809" width="48" height="13" rx="5" transform="rotate(-45 678 151.809)" fill="#1E96FC"/>
<circle cx="720.5" cy="79.5" r="12.5" transform="rotate(-90 720.5 79.5)" fill="#564154"/>
</g>
<g clip-path="url(#clip19)">
<rect width="80" height="80" transform="translate(800 160) rotate(-180)" fill="#F5E9E2"/>
<rect x="746.25" y="172.127" width="77.0011" height="4" transform="rotate(-45 746.25 172.127)" fill="#668F80"/>
<rect x="715.766" y="118.142" width="69.582" height="4" transform="rotate(-45 715.766 118.142)" fill="#668F80"/>
<rect x="709.969" y="113.171" width="69.582" height="4" transform="rotate(-45 709.969 113.171)" fill="#668F80"/>
<rect x="760.969" y="168.171" width="69.582" height="4" transform="rotate(-45 760.969 168.171)" fill="#668F80"/>
<rect x="772.672" y="141" width="48" height="13" rx="5" transform="rotate(-135 772.672 141)" fill="#F42272"/>
<rect x="753.547" y="160" width="48" height="13" rx="5" transform="rotate(-135 753.547 160)" fill="#1E96FC"/>
<rect x="791.812" y="122" width="48" height="13" rx="5" transform="rotate(-135 791.812 122)" fill="#1E96FC"/>
<circle cx="719.5" cy="79.5" r="12.5" transform="rotate(-180 719.5 79.5)" fill="#564154"/>
</g>
<g clip-path="url(#clip20)">
<rect width="80" height="80" transform="translate(800)" fill="#F5E9E2"/>
<rect x="853.75" y="-12.1274" width="77.0011" height="4" transform="rotate(135 853.75 -12.1274)" fill="#668F80"/>
<rect x="884.234" y="41.8584" width="69.582" height="4" transform="rotate(135 884.234 41.8584)" fill="#668F80"/>
<rect x="890.031" y="46.8286" width="69.582" height="4" transform="rotate(135 890.031 46.8286)" fill="#668F80"/>
<rect x="839.031" y="-8.17139" width="69.582" height="4" transform="rotate(135 839.031 -8.17139)" fill="#668F80"/>
<rect x="827.328" y="19" width="48" height="13" rx="5" transform="rotate(45 827.328 19)" fill="#F42272"/>
<rect x="846.453" width="48" height="13" rx="5" transform="rotate(45 846.453 0)" fill="#1E96FC"/>
<rect x="808.188" y="38" width="48" height="13" rx="5" transform="rotate(45 808.188 38)" fill="#1E96FC"/>
<circle cx="880.5" cy="80.5" r="12.5" fill="#564154"/>
</g>
<g clip-path="url(#clip21)">
<rect width="80" height="80" transform="translate(960) rotate(90)" fill="#F5E9E2"/>
<rect x="972.125" y="53.7549" width="77.0011" height="4" transform="rotate(-135 972.125 53.7549)" fill="#668F80"/>
<rect x="918.141" y="84.2393" width="69.582" height="4" transform="rotate(-135 918.141 84.2393)" fill="#668F80"/>
<rect x="913.172" y="90.0312" width="69.582" height="4" transform="rotate(-135 913.172 90.0312)" fill="#668F80"/>
<rect x="968.172" y="39.0312" width="69.582" height="4" transform="rotate(-135 968.172 39.0312)" fill="#668F80"/>
<rect x="941" y="27.3242" width="48" height="13" rx="5" transform="rotate(135 941 27.3242)" fill="#F42272"/>
<rect x="960" y="46.457" width="48" height="13" rx="5" transform="rotate(135 960 46.457)" fill="#1E96FC"/>
<rect x="922" y="8.19141" width="48" height="13" rx="5" transform="rotate(135 922 8.19141)" fill="#1E96FC"/>
<circle cx="879.5" cy="80.5" r="12.5" transform="rotate(90 879.5 80.5)" fill="#564154"/>
</g>
<g clip-path="url(#clip22)">
<rect width="80" height="80" transform="translate(800 160) rotate(-90)" fill="#F5E9E2"/>
<rect x="787.875" y="106.245" width="77.0011" height="4" transform="rotate(45 787.875 106.245)" fill="#668F80"/>
<rect x="841.859" y="75.7607" width="69.582" height="4" transform="rotate(45 841.859 75.7607)" fill="#668F80"/>
<rect x="846.828" y="69.9688" width="69.582" height="4" transform="rotate(45 846.828 69.9688)" fill="#668F80"/>
<rect x="791.828" y="120.969" width="69.582" height="4" transform="rotate(45 791.828 120.969)" fill="#668F80"/>
<rect x="819" y="132.676" width="48" height="13" rx="5" transform="rotate(-45 819 132.676)" fill="#F42272"/>
<rect x="800" y="113.543" width="48" height="13" rx="5" transform="rotate(-45 800 113.543)" fill="#1E96FC"/>
<rect x="838" y="151.809" width="48" height="13" rx="5" transform="rotate(-45 838 151.809)" fill="#1E96FC"/>
<circle cx="880.5" cy="79.5" r="12.5" transform="rotate(-90 880.5 79.5)" fill="#564154"/>
</g>
<g clip-path="url(#clip23)">
<rect width="80" height="80" transform="translate(960 160) rotate(-180)" fill="#F5E9E2"/>
<rect x="906.25" y="172.127" width="77.0011" height="4" transform="rotate(-45 906.25 172.127)" fill="#668F80"/>
<rect x="875.766" y="118.142" width="69.582" height="4" transform="rotate(-45 875.766 118.142)" fill="#668F80"/>
<rect x="869.969" y="113.171" width="69.582" height="4" transform="rotate(-45 869.969 113.171)" fill="#668F80"/>
<rect x="920.969" y="168.171" width="69.582" height="4" transform="rotate(-45 920.969 168.171)" fill="#668F80"/>
<rect x="932.672" y="141" width="48" height="13" rx="5" transform="rotate(-135 932.672 141)" fill="#F42272"/>
<rect x="913.547" y="160" width="48" height="13" rx="5" transform="rotate(-135 913.547 160)" fill="#1E96FC"/>
<rect x="951.812" y="122" width="48" height="13" rx="5" transform="rotate(-135 951.812 122)" fill="#1E96FC"/>
<circle cx="879.5" cy="79.5" r="12.5" transform="rotate(-180 879.5 79.5)" fill="#564154"/>
</g>
<g clip-path="url(#clip24)">
<rect width="80" height="80" transform="translate(960)" fill="#F5E9E2"/>
<rect x="1013.75" y="-12.1274" width="77.0011" height="4" transform="rotate(135 1013.75 -12.1274)" fill="#668F80"/>
<rect x="1044.23" y="41.8584" width="69.582" height="4" transform="rotate(135 1044.23 41.8584)" fill="#668F80"/>
<rect x="1050.03" y="46.8286" width="69.582" height="4" transform="rotate(135 1050.03 46.8286)" fill="#668F80"/>
<rect x="999.031" y="-8.17139" width="69.582" height="4" transform="rotate(135 999.031 -8.17139)" fill="#668F80"/>
<rect x="987.328" y="19" width="48" height="13" rx="5" transform="rotate(45 987.328 19)" fill="#F42272"/>
<rect x="1006.45" width="48" height="13" rx="5" transform="rotate(45 1006.45 0)" fill="#1E96FC"/>
<rect x="968.188" y="38" width="48" height="13" rx="5" transform="rotate(45 968.188 38)" fill="#1E96FC"/>
<circle cx="1040.5" cy="80.5" r="12.5" fill="#564154"/>
</g>
<g clip-path="url(#clip25)">
<rect width="80" height="80" transform="translate(1120) rotate(90)" fill="#F5E9E2"/>
<rect x="1132.12" y="53.7549" width="77.0011" height="4" transform="rotate(-135 1132.12 53.7549)" fill="#668F80"/>
<rect x="1078.14" y="84.2393" width="69.582" height="4" transform="rotate(-135 1078.14 84.2393)" fill="#668F80"/>
<rect x="1073.17" y="90.0312" width="69.582" height="4" transform="rotate(-135 1073.17 90.0312)" fill="#668F80"/>
<rect x="1128.17" y="39.0312" width="69.582" height="4" transform="rotate(-135 1128.17 39.0312)" fill="#668F80"/>
<rect x="1101" y="27.3242" width="48" height="13" rx="5" transform="rotate(135 1101 27.3242)" fill="#F42272"/>
<rect x="1120" y="46.457" width="48" height="13" rx="5" transform="rotate(135 1120 46.457)" fill="#1E96FC"/>
<rect x="1082" y="8.19141" width="48" height="13" rx="5" transform="rotate(135 1082 8.19141)" fill="#1E96FC"/>
<circle cx="1039.5" cy="80.5" r="12.5" transform="rotate(90 1039.5 80.5)" fill="#564154"/>
</g>
<g clip-path="url(#clip26)">
<rect width="80" height="80" transform="translate(960 160) rotate(-90)" fill="#F5E9E2"/>
<rect x="947.875" y="106.245" width="77.0011" height="4" transform="rotate(45 947.875 106.245)" fill="#668F80"/>
<rect x="1001.86" y="75.7607" width="69.582" height="4" transform="rotate(45 1001.86 75.7607)" fill="#668F80"/>
<rect x="1006.83" y="69.9688" width="69.582" height="4" transform="rotate(45 1006.83 69.9688)" fill="#668F80"/>
<rect x="951.828" y="120.969" width="69.582" height="4" transform="rotate(45 951.828 120.969)" fill="#668F80"/>
<rect x="979" y="132.676" width="48" height="13" rx="5" transform="rotate(-45 979 132.676)" fill="#F42272"/>
<rect x="960" y="113.543" width="48" height="13" rx="5" transform="rotate(-45 960 113.543)" fill="#1E96FC"/>
<rect x="998" y="151.809" width="48" height="13" rx="5" transform="rotate(-45 998 151.809)" fill="#1E96FC"/>
<circle cx="1040.5" cy="79.5" r="12.5" transform="rotate(-90 1040.5 79.5)" fill="#564154"/>
</g>
<g clip-path="url(#clip27)">
<rect width="80" height="80" transform="translate(1120 160) rotate(-180)" fill="#F5E9E2"/>
<rect x="1066.25" y="172.127" width="77.0011" height="4" transform="rotate(-45 1066.25 172.127)" fill="#668F80"/>
<rect x="1035.77" y="118.142" width="69.582" height="4" transform="rotate(-45 1035.77 118.142)" fill="#668F80"/>
<rect x="1029.97" y="113.171" width="69.582" height="4" transform="rotate(-45 1029.97 113.171)" fill="#668F80"/>
<rect x="1080.97" y="168.171" width="69.582" height="4" transform="rotate(-45 1080.97 168.171)" fill="#668F80"/>
<rect x="1092.67" y="141" width="48" height="13" rx="5" transform="rotate(-135 1092.67 141)" fill="#F42272"/>
<rect x="1073.55" y="160" width="48" height="13" rx="5" transform="rotate(-135 1073.55 160)" fill="#1E96FC"/>
<rect x="1111.81" y="122" width="48" height="13" rx="5" transform="rotate(-135 1111.81 122)" fill="#1E96FC"/>
<circle cx="1039.5" cy="79.5" r="12.5" transform="rotate(-180 1039.5 79.5)" fill="#564154"/>
</g>
<g clip-path="url(#clip28)">
<rect width="80" height="80" transform="translate(1120)" fill="#F5E9E2"/>
<rect x="1173.75" y="-12.1274" width="77.0011" height="4" transform="rotate(135 1173.75 -12.1274)" fill="#668F80"/>
<rect x="1204.23" y="41.8584" width="69.582" height="4" transform="rotate(135 1204.23 41.8584)" fill="#668F80"/>
<rect x="1210.03" y="46.8286" width="69.582" height="4" transform="rotate(135 1210.03 46.8286)" fill="#668F80"/>
<rect x="1159.03" y="-8.17139" width="69.582" height="4" transform="rotate(135 1159.03 -8.17139)" fill="#668F80"/>
<rect x="1147.33" y="19" width="48" height="13" rx="5" transform="rotate(45 1147.33 19)" fill="#F42272"/>
<rect x="1166.45" width="48" height="13" rx="5" transform="rotate(45 1166.45 0)" fill="#1E96FC"/>
<rect x="1128.19" y="38" width="48" height="13" rx="5" transform="rotate(45 1128.19 38)" fill="#1E96FC"/>
<circle cx="1200.5" cy="80.5" r="12.5" fill="#564154"/>
</g>
<g clip-path="url(#clip29)">
<rect width="80" height="80" transform="translate(1280) rotate(90)" fill="#F5E9E2"/>
<rect x="1292.12" y="53.7549" width="77.0011" height="4" transform="rotate(-135 1292.12 53.7549)" fill="#668F80"/>
<rect x="1238.14" y="84.2393" width="69.582" height="4" transform="rotate(-135 1238.14 84.2393)" fill="#668F80"/>
<rect x="1233.17" y="90.0312" width="69.582" height="4" transform="rotate(-135 1233.17 90.0312)" fill="#668F80"/>
<rect x="1288.17" y="39.0312" width="69.582" height="4" transform="rotate(-135 1288.17 39.0312)" fill="#668F80"/>
<rect x="1261" y="27.3242" width="48" height="13" rx="5" transform="rotate(135 1261 27.3242)" fill="#F42272"/>
<rect x="1280" y="46.457" width="48" height="13" rx="5" transform="rotate(135 1280 46.457)" fill="#1E96FC"/>
<rect x="1242" y="8.19141" width="48" height="13" rx="5" transform="rotate(135 1242 8.19141)" fill="#1E96FC"/>
<circle cx="1199.5" cy="80.5" r="12.5" transform="rotate(90 1199.5 80.5)" fill="#564154"/>
</g>
<g clip-path="url(#clip30)">
<rect width="80" height="80" transform="translate(1120 160) rotate(-90)" fill="#F5E9E2"/>
<rect x="1107.88" y="106.245" width="77.0011" height="4" transform="rotate(45 1107.88 106.245)" fill="#668F80"/>
<rect x="1161.86" y="75.7607" width="69.582" height="4" transform="rotate(45 1161.86 75.7607)" fill="#668F80"/>
<rect x="1166.83" y="69.9688" width="69.582" height="4" transform="rotate(45 1166.83 69.9688)" fill="#668F80"/>
<rect x="1111.83" y="120.969" width="69.582" height="4" transform="rotate(45 1111.83 120.969)" fill="#668F80"/>
<rect x="1139" y="132.676" width="48" height="13" rx="5" transform="rotate(-45 1139 132.676)" fill="#F42272"/>
<rect x="1120" y="113.543" width="48" height="13" rx="5" transform="rotate(-45 1120 113.543)" fill="#1E96FC"/>
<rect x="1158" y="151.809" width="48" height="13" rx="5" transform="rotate(-45 1158 151.809)" fill="#1E96FC"/>
<circle cx="1200.5" cy="79.5" r="12.5" transform="rotate(-90 1200.5 79.5)" fill="#564154"/>
</g>
<g clip-path="url(#clip31)">
<rect width="80" height="80" transform="translate(1280 160) rotate(-180)" fill="#F5E9E2"/>
<rect x="1226.25" y="172.127" width="77.0011" height="4" transform="rotate(-45 1226.25 172.127)" fill="#668F80"/>
<rect x="1195.77" y="118.142" width="69.582" height="4" transform="rotate(-45 1195.77 118.142)" fill="#668F80"/>
<rect x="1189.97" y="113.171" width="69.582" height="4" transform="rotate(-45 1189.97 113.171)" fill="#668F80"/>
<rect x="1240.97" y="168.171" width="69.582" height="4" transform="rotate(-45 1240.97 168.171)" fill="#668F80"/>
<rect x="1252.67" y="141" width="48" height="13" rx="5" transform="rotate(-135 1252.67 141)" fill="#F42272"/>
<rect x="1233.55" y="160" width="48" height="13" rx="5" transform="rotate(-135 1233.55 160)" fill="#1E96FC"/>
<rect x="1271.81" y="122" width="48" height="13" rx="5" transform="rotate(-135 1271.81 122)" fill="#1E96FC"/>
<circle cx="1199.5" cy="79.5" r="12.5" transform="rotate(-180 1199.5 79.5)" fill="#564154"/>
</g>
<g clip-path="url(#clip32)">
<rect width="80" height="80" transform="translate(1280)" fill="#F5E9E2"/>
<rect x="1333.75" y="-12.1274" width="77.0011" height="4" transform="rotate(135 1333.75 -12.1274)" fill="#668F80"/>
<rect x="1364.23" y="41.8584" width="69.582" height="4" transform="rotate(135 1364.23 41.8584)" fill="#668F80"/>
<rect x="1370.03" y="46.8286" width="69.582" height="4" transform="rotate(135 1370.03 46.8286)" fill="#668F80"/>
<rect x="1319.03" y="-8.17139" width="69.582" height="4" transform="rotate(135 1319.03 -8.17139)" fill="#668F80"/>
<rect x="1307.33" y="19" width="48" height="13" rx="5" transform="rotate(45 1307.33 19)" fill="#F42272"/>
<rect x="1326.45" width="48" height="13" rx="5" transform="rotate(45 1326.45 0)" fill="#1E96FC"/>
<rect x="1288.19" y="38" width="48" height="13" rx="5" transform="rotate(45 1288.19 38)" fill="#1E96FC"/>
<circle cx="1360.5" cy="80.5" r="12.5" fill="#564154"/>
</g>
<g clip-path="url(#clip33)">
<rect width="80" height="80" transform="translate(1440) rotate(90)" fill="#F5E9E2"/>
<rect x="1452.12" y="53.7549" width="77.0011" height="4" transform="rotate(-135 1452.12 53.7549)" fill="#668F80"/>
<rect x="1398.14" y="84.2393" width="69.582" height="4" transform="rotate(-135 1398.14 84.2393)" fill="#668F80"/>
<rect x="1393.17" y="90.0312" width="69.582" height="4" transform="rotate(-135 1393.17 90.0312)" fill="#668F80"/>
<rect x="1448.17" y="39.0312" width="69.582" height="4" transform="rotate(-135 1448.17 39.0312)" fill="#668F80"/>
<rect x="1421" y="27.3242" width="48" height="13" rx="5" transform="rotate(135 1421 27.3242)" fill="#F42272"/>
<rect x="1440" y="46.457" width="48" height="13" rx="5" transform="rotate(135 1440 46.457)" fill="#1E96FC"/>
<rect x="1402" y="8.19141" width="48" height="13" rx="5" transform="rotate(135 1402 8.19141)" fill="#1E96FC"/>
<circle cx="1359.5" cy="80.5" r="12.5" transform="rotate(90 1359.5 80.5)" fill="#564154"/>
</g>
<g clip-path="url(#clip34)">
<rect width="80" height="80" transform="translate(1280 160) rotate(-90)" fill="#F5E9E2"/>
<rect x="1267.88" y="106.245" width="77.0011" height="4" transform="rotate(45 1267.88 106.245)" fill="#668F80"/>
<rect x="1321.86" y="75.7607" width="69.582" height="4" transform="rotate(45 1321.86 75.7607)" fill="#668F80"/>
<rect x="1326.83" y="69.9688" width="69.582" height="4" transform="rotate(45 1326.83 69.9688)" fill="#668F80"/>
<rect x="1271.83" y="120.969" width="69.582" height="4" transform="rotate(45 1271.83 120.969)" fill="#668F80"/>
<rect x="1299" y="132.676" width="48" height="13" rx="5" transform="rotate(-45 1299 132.676)" fill="#F42272"/>
<rect x="1280" y="113.543" width="48" height="13" rx="5" transform="rotate(-45 1280 113.543)" fill="#1E96FC"/>
<rect x="1318" y="151.809" width="48" height="13" rx="5" transform="rotate(-45 1318 151.809)" fill="#1E96FC"/>
<circle cx="1360.5" cy="79.5" r="12.5" transform="rotate(-90 1360.5 79.5)" fill="#564154"/>
</g>
<g clip-path="url(#clip35)">
<rect width="80" height="80" transform="translate(1440 160) rotate(-180)" fill="#F5E9E2"/>
<rect x="1386.25" y="172.127" width="77.0011" height="4" transform="rotate(-45 1386.25 172.127)" fill="#668F80"/>
<rect x="1355.77" y="118.142" width="69.582" height="4" transform="rotate(-45 1355.77 118.142)" fill="#668F80"/>
<rect x="1349.97" y="113.171" width="69.582" height="4" transform="rotate(-45 1349.97 113.171)" fill="#668F80"/>
<rect x="1400.97" y="168.171" width="69.582" height="4" transform="rotate(-45 1400.97 168.171)" fill="#668F80"/>
<rect x="1412.67" y="141" width="48" height="13" rx="5" transform="rotate(-135 1412.67 141)" fill="#F42272"/>
<rect x="1393.55" y="160" width="48" height="13" rx="5" transform="rotate(-135 1393.55 160)" fill="#1E96FC"/>
<rect x="1431.81" y="122" width="48" height="13" rx="5" transform="rotate(-135 1431.81 122)" fill="#1E96FC"/>
<circle cx="1359.5" cy="79.5" r="12.5" transform="rotate(-180 1359.5 79.5)" fill="#564154"/>
</g>
<g clip-path="url(#clip36)">
<rect width="80" height="80" transform="translate(1440)" fill="#F5E9E2"/>
<rect x="1493.75" y="-12.1274" width="77.0011" height="4" transform="rotate(135 1493.75 -12.1274)" fill="#668F80"/>
<rect x="1524.23" y="41.8584" width="69.582" height="4" transform="rotate(135 1524.23 41.8584)" fill="#668F80"/>
<rect x="1530.03" y="46.8286" width="69.582" height="4" transform="rotate(135 1530.03 46.8286)" fill="#668F80"/>
<rect x="1479.03" y="-8.17139" width="69.582" height="4" transform="rotate(135 1479.03 -8.17139)" fill="#668F80"/>
<rect x="1467.33" y="19" width="48" height="13" rx="5" transform="rotate(45 1467.33 19)" fill="#F42272"/>
<rect x="1486.45" width="48" height="13" rx="5" transform="rotate(45 1486.45 0)" fill="#1E96FC"/>
<rect x="1448.19" y="38" width="48" height="13" rx="5" transform="rotate(45 1448.19 38)" fill="#1E96FC"/>
<circle cx="1520.5" cy="80.5" r="12.5" fill="#564154"/>
</g>
<g clip-path="url(#clip37)">
<rect width="80" height="80" transform="translate(1600) rotate(90)" fill="#F5E9E2"/>
<rect x="1612.12" y="53.7549" width="77.0011" height="4" transform="rotate(-135 1612.12 53.7549)" fill="#668F80"/>
<rect x="1558.14" y="84.2393" width="69.582" height="4" transform="rotate(-135 1558.14 84.2393)" fill="#668F80"/>
<rect x="1553.17" y="90.0312" width="69.582" height="4" transform="rotate(-135 1553.17 90.0312)" fill="#668F80"/>
<rect x="1608.17" y="39.0312" width="69.582" height="4" transform="rotate(-135 1608.17 39.0312)" fill="#668F80"/>
<rect x="1581" y="27.3242" width="48" height="13" rx="5" transform="rotate(135 1581 27.3242)" fill="#F42272"/>
<rect x="1600" y="46.457" width="48" height="13" rx="5" transform="rotate(135 1600 46.457)" fill="#1E96FC"/>
<rect x="1562" y="8.19141" width="48" height="13" rx="5" transform="rotate(135 1562 8.19141)" fill="#1E96FC"/>
<circle cx="1519.5" cy="80.5" r="12.5" transform="rotate(90 1519.5 80.5)" fill="#564154"/>
</g>
<g clip-path="url(#clip38)">
<rect width="80" height="80" transform="translate(1440 160) rotate(-90)" fill="#F5E9E2"/>
<rect x="1427.88" y="106.245" width="77.0011" height="4" transform="rotate(45 1427.88 106.245)" fill="#668F80"/>
<rect x="1481.86" y="75.7607" width="69.582" height="4" transform="rotate(45 1481.86 75.7607)" fill="#668F80"/>
<rect x="1486.83" y="69.9688" width="69.582" height="4" transform="rotate(45 1486.83 69.9688)" fill="#668F80"/>
<rect x="1431.83" y="120.969" width="69.582" height="4" transform="rotate(45 1431.83 120.969)" fill="#668F80"/>
<rect x="1459" y="132.676" width="48" height="13" rx="5" transform="rotate(-45 1459 132.676)" fill="#F42272"/>
<rect x="1440" y="113.543" width="48" height="13" rx="5" transform="rotate(-45 1440 113.543)" fill="#1E96FC"/>
<rect x="1478" y="151.809" width="48" height="13" rx="5" transform="rotate(-45 1478 151.809)" fill="#1E96FC"/>
<circle cx="1520.5" cy="79.5" r="12.5" transform="rotate(-90 1520.5 79.5)" fill="#564154"/>
</g>
<g clip-path="url(#clip39)">
<rect width="80" height="80" transform="translate(1600 160) rotate(-180)" fill="#F5E9E2"/>
<rect x="1546.25" y="172.127" width="77.0011" height="4" transform="rotate(-45 1546.25 172.127)" fill="#668F80"/>
<rect x="1515.77" y="118.142" width="69.582" height="4" transform="rotate(-45 1515.77 118.142)" fill="#668F80"/>
<rect x="1509.97" y="113.171" width="69.582" height="4" transform="rotate(-45 1509.97 113.171)" fill="#668F80"/>
<rect x="1560.97" y="168.171" width="69.582" height="4" transform="rotate(-45 1560.97 168.171)" fill="#668F80"/>
<rect x="1572.67" y="141" width="48" height="13" rx="5" transform="rotate(-135 1572.67 141)" fill="#F42272"/>
<rect x="1553.55" y="160" width="48" height="13" rx="5" transform="rotate(-135 1553.55 160)" fill="#1E96FC"/>
<rect x="1591.81" y="122" width="48" height="13" rx="5" transform="rotate(-135 1591.81 122)" fill="#1E96FC"/>
<circle cx="1519.5" cy="79.5" r="12.5" transform="rotate(-180 1519.5 79.5)" fill="#564154"/>
</g>
<defs>
<clipPath id="clip0">
<rect width="80" height="80" fill="white"/>
</clipPath>
<clipPath id="clip1">
<rect width="80" height="80" fill="white" transform="translate(160) rotate(90)"/>
</clipPath>
<clipPath id="clip2">
<rect width="80" height="80" fill="white" transform="translate(0 160) rotate(-90)"/>
</clipPath>
<clipPath id="clip3">
<rect width="80" height="80" fill="white" transform="translate(160 160) rotate(-180)"/>
</clipPath>
<clipPath id="clip4">
<rect width="80" height="80" fill="white" transform="translate(160)"/>
</clipPath>
<clipPath id="clip5">
<rect width="80" height="80" fill="white" transform="translate(320) rotate(90)"/>
</clipPath>
<clipPath id="clip6">
<rect width="80" height="80" fill="white" transform="translate(160 160) rotate(-90)"/>
</clipPath>
<clipPath id="clip7">
<rect width="80" height="80" fill="white" transform="translate(320 160) rotate(-180)"/>
</clipPath>
<clipPath id="clip8">
<rect width="80" height="80" fill="white" transform="translate(320)"/>
</clipPath>
<clipPath id="clip9">
<rect width="80" height="80" fill="white" transform="translate(480) rotate(90)"/>
</clipPath>
<clipPath id="clip10">
<rect width="80" height="80" fill="white" transform="translate(320 160) rotate(-90)"/>
</clipPath>
<clipPath id="clip11">
<rect width="80" height="80" fill="white" transform="translate(480 160) rotate(-180)"/>
</clipPath>
<clipPath id="clip12">
<rect width="80" height="80" fill="white" transform="translate(480)"/>
</clipPath>
<clipPath id="clip13">
<rect width="80" height="80" fill="white" transform="translate(640) rotate(90)"/>
</clipPath>
<clipPath id="clip14">
<rect width="80" height="80" fill="white" transform="translate(480 160) rotate(-90)"/>
</clipPath>
<clipPath id="clip15">
<rect width="80" height="80" fill="white" transform="translate(640 160) rotate(-180)"/>
</clipPath>
<clipPath id="clip16">
<rect width="80" height="80" fill="white" transform="translate(640)"/>
</clipPath>
<clipPath id="clip17">
<rect width="80" height="80" fill="white" transform="translate(800) rotate(90)"/>
</clipPath>
<clipPath id="clip18">
<rect width="80" height="80" fill="white" transform="translate(640 160) rotate(-90)"/>
</clipPath>
<clipPath id="clip19">
<rect width="80" height="80" fill="white" transform="translate(800 160) rotate(-180)"/>
</clipPath>
<clipPath id="clip20">
<rect width="80" height="80" fill="white" transform="translate(800)"/>
</clipPath>
<clipPath id="clip21">
<rect width="80" height="80" fill="white" transform="translate(960) rotate(90)"/>
</clipPath>
<clipPath id="clip22">
<rect width="80" height="80" fill="white" transform="translate(800 160) rotate(-90)"/>
</clipPath>
<clipPath id="clip23">
<rect width="80" height="80" fill="white" transform="translate(960 160) rotate(-180)"/>
</clipPath>
<clipPath id="clip24">
<rect width="80" height="80" fill="white" transform="translate(960)"/>
</clipPath>
<clipPath id="clip25">
<rect width="80" height="80" fill="white" transform="translate(1120) rotate(90)"/>
</clipPath>
<clipPath id="clip26">
<rect width="80" height="80" fill="white" transform="translate(960 160) rotate(-90)"/>
</clipPath>
<clipPath id="clip27">
<rect width="80" height="80" fill="white" transform="translate(1120 160) rotate(-180)"/>
</clipPath>
<clipPath id="clip28">
<rect width="80" height="80" fill="white" transform="translate(1120)"/>
</clipPath>
<clipPath id="clip29">
<rect width="80" height="80" fill="white" transform="translate(1280) rotate(90)"/>
</clipPath>
<clipPath id="clip30">
<rect width="80" height="80" fill="white" transform="translate(1120 160) rotate(-90)"/>
</clipPath>
<clipPath id="clip31">
<rect width="80" height="80" fill="white" transform="translate(1280 160) rotate(-180)"/>
</clipPath>
<clipPath id="clip32">
<rect width="80" height="80" fill="white" transform="translate(1280)"/>
</clipPath>
<clipPath id="clip33">
<rect width="80" height="80" fill="white" transform="translate(1440) rotate(90)"/>
</clipPath>
<clipPath id="clip34">
<rect width="80" height="80" fill="white" transform="translate(1280 160) rotate(-90)"/>
</clipPath>
<clipPath id="clip35">
<rect width="80" height="80" fill="white" transform="translate(1440 160) rotate(-180)"/>
</clipPath>
<clipPath id="clip36">
<rect width="80" height="80" fill="white" transform="translate(1440)"/>
</clipPath>
<clipPath id="clip37">
<rect width="80" height="80" fill="white" transform="translate(1600) rotate(90)"/>
</clipPath>
<clipPath id="clip38">
<rect width="80" height="80" fill="white" transform="translate(1440 160) rotate(-90)"/>
</clipPath>
<clipPath id="clip39">
<rect width="80" height="80" fill="white" transform="translate(1600 160) rotate(-180)"/>
</clipPath>
</defs>
</svg>
