<svg width="400" height="400" viewBox="0 0 400 400" fill="none" xmlns="http://www.w3.org/2000/svg">
<rect width="100" height="100" fill="white"/>
<rect x="11" y="18" width="18" height="66" rx="9" fill="#0A014F"/>
<rect x="31" y="90" width="12" height="58" rx="6" transform="rotate(-90 31 90)" fill="#F5E960"/>
<rect x="31" y="11" width="18" height="12" rx="6" fill="#0A014F"/>
<rect x="53" y="11" width="36" height="12" rx="6" fill="#0A014F"/>
<rect x="69" y="55" width="20" height="7" rx="3.5" fill="#00F0B5"/>
<rect x="80" y="66" width="9" height="6" rx="3" fill="#4C5760"/>
<rect x="48" y="47" width="41" height="6" rx="3" fill="#D14081"/>
<rect x="31" y="72" width="44" height="6" rx="3" transform="rotate(-90 31 72)" fill="#FFE9F3"/>
<rect x="39" y="72" width="22" height="6" rx="3" transform="rotate(-90 39 72)" fill="#FFE9F3"/>
<rect x="47" y="72" width="11" height="6" rx="3" transform="rotate(-90 47 72)" fill="#FFE9F3"/>
<rect x="55" y="72" width="8" height="6" rx="3" transform="rotate(-90 55 72)" fill="#FFE9F3"/>
<rect x="63" y="72" width="6" height="6" rx="3" transform="rotate(-90 63 72)" fill="#FFE9F3"/>
<rect width="100" height="100" transform="translate(200) rotate(90)" fill="white"/>
<rect x="182" y="11" width="18" height="66" rx="9" transform="rotate(90 182 11)" fill="#0A014F"/>
<rect x="110" y="31" width="12" height="58" rx="6" fill="#F5E960"/>
<rect x="189" y="31" width="18" height="12" rx="6" transform="rotate(90 189 31)" fill="#0A014F"/>
<rect x="189" y="53" width="36" height="12" rx="6" transform="rotate(90 189 53)" fill="#0A014F"/>
<rect x="145" y="69" width="20" height="7" rx="3.5" transform="rotate(90 145 69)" fill="#00F0B5"/>
<rect x="134" y="80" width="9" height="6" rx="3" transform="rotate(90 134 80)" fill="#4C5760"/>
<rect x="153" y="48" width="41" height="6" rx="3" transform="rotate(90 153 48)" fill="#D14081"/>
<rect x="128" y="31" width="44" height="6" rx="3" fill="#FFE9F3"/>
<rect x="128" y="39" width="22" height="6" rx="3" fill="#FFE9F3"/>
<rect x="128" y="47" width="11" height="6" rx="3" fill="#FFE9F3"/>
<rect x="128" y="55" width="8" height="6" rx="3" fill="#FFE9F3"/>
<rect x="128" y="63" width="6" height="6" rx="3" fill="#FFE9F3"/>
<rect width="100" height="100" transform="translate(0 200) rotate(-90)" fill="white"/>
<rect x="18" y="189" width="18" height="66" rx="9" transform="rotate(-90 18 189)" fill="#0A014F"/>
<rect x="90" y="169" width="12" height="58" rx="6" transform="rotate(-180 90 169)" fill="#F5E960"/>
<rect x="11" y="169" width="18" height="12" rx="6" transform="rotate(-90 11 169)" fill="#0A014F"/>
<rect x="11" y="147" width="36" height="12" rx="6" transform="rotate(-90 11 147)" fill="#0A014F"/>
<rect x="55" y="131" width="20" height="7" rx="3.5" transform="rotate(-90 55 131)" fill="#00F0B5"/>
<rect x="66" y="120" width="9" height="6" rx="3" transform="rotate(-90 66 120)" fill="#4C5760"/>
<rect x="47" y="152" width="41" height="6" rx="3" transform="rotate(-90 47 152)" fill="#D14081"/>
<rect x="72" y="169" width="44" height="6" rx="3" transform="rotate(-180 72 169)" fill="#FFE9F3"/>
<rect x="72" y="161" width="22" height="6" rx="3" transform="rotate(-180 72 161)" fill="#FFE9F3"/>
<rect x="72" y="153" width="11" height="6" rx="3" transform="rotate(-180 72 153)" fill="#FFE9F3"/>
<rect x="72" y="145" width="8" height="6" rx="3" transform="rotate(-180 72 145)" fill="#FFE9F3"/>
<rect x="72" y="137" width="6" height="6" rx="3" transform="rotate(-180 72 137)" fill="#FFE9F3"/>
<rect width="100" height="100" transform="translate(200 200) rotate(-180)" fill="white"/>
<rect x="189" y="182" width="18" height="66" rx="9" transform="rotate(-180 189 182)" fill="#0A014F"/>
<rect x="169" y="110" width="12" height="58" rx="6" transform="rotate(90 169 110)" fill="#F5E960"/>
<rect x="169" y="189" width="18" height="12" rx="6" transform="rotate(-180 169 189)" fill="#0A014F"/>
<rect x="147" y="189" width="36" height="12" rx="6" transform="rotate(-180 147 189)" fill="#0A014F"/>
<rect x="131" y="145" width="20" height="7" rx="3.5" transform="rotate(-180 131 145)" fill="#00F0B5"/>
<rect x="120" y="134" width="9" height="6" rx="3" transform="rotate(-180 120 134)" fill="#4C5760"/>
<rect x="152" y="153" width="41" height="6" rx="3" transform="rotate(-180 152 153)" fill="#D14081"/>
<rect x="169" y="128" width="44" height="6" rx="3" transform="rotate(90 169 128)" fill="#FFE9F3"/>
<rect x="161" y="128" width="22" height="6" rx="3" transform="rotate(90 161 128)" fill="#FFE9F3"/>
<rect x="153" y="128" width="11" height="6" rx="3" transform="rotate(90 153 128)" fill="#FFE9F3"/>
<rect x="145" y="128" width="8" height="6" rx="3" transform="rotate(90 145 128)" fill="#FFE9F3"/>
<rect x="137" y="128" width="6" height="6" rx="3" transform="rotate(90 137 128)" fill="#FFE9F3"/>
<rect width="100" height="100" transform="translate(200)" fill="white"/>
<rect x="211" y="18" width="18" height="66" rx="9" fill="#0A014F"/>
<rect x="231" y="90" width="12" height="58" rx="6" transform="rotate(-90 231 90)" fill="#F5E960"/>
<rect x="231" y="11" width="18" height="12" rx="6" fill="#0A014F"/>
<rect x="253" y="11" width="36" height="12" rx="6" fill="#0A014F"/>
<rect x="269" y="55" width="20" height="7" rx="3.5" fill="#00F0B5"/>
<rect x="280" y="66" width="9" height="6" rx="3" fill="#4C5760"/>
<rect x="248" y="47" width="41" height="6" rx="3" fill="#D14081"/>
<rect x="231" y="72" width="44" height="6" rx="3" transform="rotate(-90 231 72)" fill="#FFE9F3"/>
<rect x="239" y="72" width="22" height="6" rx="3" transform="rotate(-90 239 72)" fill="#FFE9F3"/>
<rect x="247" y="72" width="11" height="6" rx="3" transform="rotate(-90 247 72)" fill="#FFE9F3"/>
<rect x="255" y="72" width="8" height="6" rx="3" transform="rotate(-90 255 72)" fill="#FFE9F3"/>
<rect x="263" y="72" width="6" height="6" rx="3" transform="rotate(-90 263 72)" fill="#FFE9F3"/>
<rect width="100" height="100" transform="translate(400) rotate(90)" fill="white"/>
<rect x="382" y="11" width="18" height="66" rx="9" transform="rotate(90 382 11)" fill="#0A014F"/>
<rect x="310" y="31" width="12" height="58" rx="6" fill="#F5E960"/>
<rect x="389" y="31" width="18" height="12" rx="6" transform="rotate(90 389 31)" fill="#0A014F"/>
<rect x="389" y="53" width="36" height="12" rx="6" transform="rotate(90 389 53)" fill="#0A014F"/>
<rect x="345" y="69" width="20" height="7" rx="3.5" transform="rotate(90 345 69)" fill="#00F0B5"/>
<rect x="334" y="80" width="9" height="6" rx="3" transform="rotate(90 334 80)" fill="#4C5760"/>
<rect x="353" y="48" width="41" height="6" rx="3" transform="rotate(90 353 48)" fill="#D14081"/>
<rect x="328" y="31" width="44" height="6" rx="3" fill="#FFE9F3"/>
<rect x="328" y="39" width="22" height="6" rx="3" fill="#FFE9F3"/>
<rect x="328" y="47" width="11" height="6" rx="3" fill="#FFE9F3"/>
<rect x="328" y="55" width="8" height="6" rx="3" fill="#FFE9F3"/>
<rect x="328" y="63" width="6" height="6" rx="3" fill="#FFE9F3"/>
<rect width="100" height="100" transform="translate(200 200) rotate(-90)" fill="white"/>
<rect x="218" y="189" width="18" height="66" rx="9" transform="rotate(-90 218 189)" fill="#0A014F"/>
<rect x="290" y="169" width="12" height="58" rx="6" transform="rotate(-180 290 169)" fill="#F5E960"/>
<rect x="211" y="169" width="18" height="12" rx="6" transform="rotate(-90 211 169)" fill="#0A014F"/>
<rect x="211" y="147" width="36" height="12" rx="6" transform="rotate(-90 211 147)" fill="#0A014F"/>
<rect x="255" y="131" width="20" height="7" rx="3.5" transform="rotate(-90 255 131)" fill="#00F0B5"/>
<rect x="266" y="120" width="9" height="6" rx="3" transform="rotate(-90 266 120)" fill="#4C5760"/>
<rect x="247" y="152" width="41" height="6" rx="3" transform="rotate(-90 247 152)" fill="#D14081"/>
<rect x="272" y="169" width="44" height="6" rx="3" transform="rotate(-180 272 169)" fill="#FFE9F3"/>
<rect x="272" y="161" width="22" height="6" rx="3" transform="rotate(-180 272 161)" fill="#FFE9F3"/>
<rect x="272" y="153" width="11" height="6" rx="3" transform="rotate(-180 272 153)" fill="#FFE9F3"/>
<rect x="272" y="145" width="8" height="6" rx="3" transform="rotate(-180 272 145)" fill="#FFE9F3"/>
<rect x="272" y="137" width="6" height="6" rx="3" transform="rotate(-180 272 137)" fill="#FFE9F3"/>
<rect width="100" height="100" transform="translate(400 200) rotate(-180)" fill="white"/>
<rect x="389" y="182" width="18" height="66" rx="9" transform="rotate(-180 389 182)" fill="#0A014F"/>
<rect x="369" y="110" width="12" height="58" rx="6" transform="rotate(90 369 110)" fill="#F5E960"/>
<rect x="369" y="189" width="18" height="12" rx="6" transform="rotate(-180 369 189)" fill="#0A014F"/>
<rect x="347" y="189" width="36" height="12" rx="6" transform="rotate(-180 347 189)" fill="#0A014F"/>
<rect x="331" y="145" width="20" height="7" rx="3.5" transform="rotate(-180 331 145)" fill="#00F0B5"/>
<rect x="320" y="134" width="9" height="6" rx="3" transform="rotate(-180 320 134)" fill="#4C5760"/>
<rect x="352" y="153" width="41" height="6" rx="3" transform="rotate(-180 352 153)" fill="#D14081"/>
<rect x="369" y="128" width="44" height="6" rx="3" transform="rotate(90 369 128)" fill="#FFE9F3"/>
<rect x="361" y="128" width="22" height="6" rx="3" transform="rotate(90 361 128)" fill="#FFE9F3"/>
<rect x="353" y="128" width="11" height="6" rx="3" transform="rotate(90 353 128)" fill="#FFE9F3"/>
<rect x="345" y="128" width="8" height="6" rx="3" transform="rotate(90 345 128)" fill="#FFE9F3"/>
<rect x="337" y="128" width="6" height="6" rx="3" transform="rotate(90 337 128)" fill="#FFE9F3"/>
<rect width="100" height="100" transform="translate(0 200)" fill="white"/>
<rect x="11" y="218" width="18" height="66" rx="9" fill="#0A014F"/>
<rect x="31" y="290" width="12" height="58" rx="6" transform="rotate(-90 31 290)" fill="#F5E960"/>
<rect x="31" y="211" width="18" height="12" rx="6" fill="#0A014F"/>
<rect x="53" y="211" width="36" height="12" rx="6" fill="#0A014F"/>
<rect x="69" y="255" width="20" height="7" rx="3.5" fill="#00F0B5"/>
<rect x="80" y="266" width="9" height="6" rx="3" fill="#4C5760"/>
<rect x="48" y="247" width="41" height="6" rx="3" fill="#D14081"/>
<rect x="31" y="272" width="44" height="6" rx="3" transform="rotate(-90 31 272)" fill="#FFE9F3"/>
<rect x="39" y="272" width="22" height="6" rx="3" transform="rotate(-90 39 272)" fill="#FFE9F3"/>
<rect x="47" y="272" width="11" height="6" rx="3" transform="rotate(-90 47 272)" fill="#FFE9F3"/>
<rect x="55" y="272" width="8" height="6" rx="3" transform="rotate(-90 55 272)" fill="#FFE9F3"/>
<rect x="63" y="272" width="6" height="6" rx="3" transform="rotate(-90 63 272)" fill="#FFE9F3"/>
<rect width="100" height="100" transform="translate(200 200) rotate(90)" fill="white"/>
<rect x="182" y="211" width="18" height="66" rx="9" transform="rotate(90 182 211)" fill="#0A014F"/>
<rect x="110" y="231" width="12" height="58" rx="6" fill="#F5E960"/>
<rect x="189" y="231" width="18" height="12" rx="6" transform="rotate(90 189 231)" fill="#0A014F"/>
<rect x="189" y="253" width="36" height="12" rx="6" transform="rotate(90 189 253)" fill="#0A014F"/>
<rect x="145" y="269" width="20" height="7" rx="3.5" transform="rotate(90 145 269)" fill="#00F0B5"/>
<rect x="134" y="280" width="9" height="6" rx="3" transform="rotate(90 134 280)" fill="#4C5760"/>
<rect x="153" y="248" width="41" height="6" rx="3" transform="rotate(90 153 248)" fill="#D14081"/>
<rect x="128" y="231" width="44" height="6" rx="3" fill="#FFE9F3"/>
<rect x="128" y="239" width="22" height="6" rx="3" fill="#FFE9F3"/>
<rect x="128" y="247" width="11" height="6" rx="3" fill="#FFE9F3"/>
<rect x="128" y="255" width="8" height="6" rx="3" fill="#FFE9F3"/>
<rect x="128" y="263" width="6" height="6" rx="3" fill="#FFE9F3"/>
<rect width="100" height="100" transform="translate(0 400) rotate(-90)" fill="white"/>
<rect x="18" y="389" width="18" height="66" rx="9" transform="rotate(-90 18 389)" fill="#0A014F"/>
<rect x="90" y="369" width="12" height="58" rx="6" transform="rotate(-180 90 369)" fill="#F5E960"/>
<rect x="11" y="369" width="18" height="12" rx="6" transform="rotate(-90 11 369)" fill="#0A014F"/>
<rect x="11" y="347" width="36" height="12" rx="6" transform="rotate(-90 11 347)" fill="#0A014F"/>
<rect x="55" y="331" width="20" height="7" rx="3.5" transform="rotate(-90 55 331)" fill="#00F0B5"/>
<rect x="66" y="320" width="9" height="6" rx="3" transform="rotate(-90 66 320)" fill="#4C5760"/>
<rect x="47" y="352" width="41" height="6" rx="3" transform="rotate(-90 47 352)" fill="#D14081"/>
<rect x="72" y="369" width="44" height="6" rx="3" transform="rotate(-180 72 369)" fill="#FFE9F3"/>
<rect x="72" y="361" width="22" height="6" rx="3" transform="rotate(-180 72 361)" fill="#FFE9F3"/>
<rect x="72" y="353" width="11" height="6" rx="3" transform="rotate(-180 72 353)" fill="#FFE9F3"/>
<rect x="72" y="345" width="8" height="6" rx="3" transform="rotate(-180 72 345)" fill="#FFE9F3"/>
<rect x="72" y="337" width="6" height="6" rx="3" transform="rotate(-180 72 337)" fill="#FFE9F3"/>
<rect width="100" height="100" transform="translate(200 400) rotate(-180)" fill="white"/>
<rect x="189" y="382" width="18" height="66" rx="9" transform="rotate(-180 189 382)" fill="#0A014F"/>
<rect x="169" y="310" width="12" height="58" rx="6" transform="rotate(90 169 310)" fill="#F5E960"/>
<rect x="169" y="389" width="18" height="12" rx="6" transform="rotate(-180 169 389)" fill="#0A014F"/>
<rect x="147" y="389" width="36" height="12" rx="6" transform="rotate(-180 147 389)" fill="#0A014F"/>
<rect x="131" y="345" width="20" height="7" rx="3.5" transform="rotate(-180 131 345)" fill="#00F0B5"/>
<rect x="120" y="334" width="9" height="6" rx="3" transform="rotate(-180 120 334)" fill="#4C5760"/>
<rect x="152" y="353" width="41" height="6" rx="3" transform="rotate(-180 152 353)" fill="#D14081"/>
<rect x="169" y="328" width="44" height="6" rx="3" transform="rotate(90 169 328)" fill="#FFE9F3"/>
<rect x="161" y="328" width="22" height="6" rx="3" transform="rotate(90 161 328)" fill="#FFE9F3"/>
<rect x="153" y="328" width="11" height="6" rx="3" transform="rotate(90 153 328)" fill="#FFE9F3"/>
<rect x="145" y="328" width="8" height="6" rx="3" transform="rotate(90 145 328)" fill="#FFE9F3"/>
<rect x="137" y="328" width="6" height="6" rx="3" transform="rotate(90 137 328)" fill="#FFE9F3"/>
<rect width="100" height="100" transform="translate(200 200)" fill="white"/>
<rect x="211" y="218" width="18" height="66" rx="9" fill="#0A014F"/>
<rect x="231" y="290" width="12" height="58" rx="6" transform="rotate(-90 231 290)" fill="#F5E960"/>
<rect x="231" y="211" width="18" height="12" rx="6" fill="#0A014F"/>
<rect x="253" y="211" width="36" height="12" rx="6" fill="#0A014F"/>
<rect x="269" y="255" width="20" height="7" rx="3.5" fill="#00F0B5"/>
<rect x="280" y="266" width="9" height="6" rx="3" fill="#4C5760"/>
<rect x="248" y="247" width="41" height="6" rx="3" fill="#D14081"/>
<rect x="231" y="272" width="44" height="6" rx="3" transform="rotate(-90 231 272)" fill="#FFE9F3"/>
<rect x="239" y="272" width="22" height="6" rx="3" transform="rotate(-90 239 272)" fill="#FFE9F3"/>
<rect x="247" y="272" width="11" height="6" rx="3" transform="rotate(-90 247 272)" fill="#FFE9F3"/>
<rect x="255" y="272" width="8" height="6" rx="3" transform="rotate(-90 255 272)" fill="#FFE9F3"/>
<rect x="263" y="272" width="6" height="6" rx="3" transform="rotate(-90 263 272)" fill="#FFE9F3"/>
<rect width="100" height="100" transform="translate(400 200) rotate(90)" fill="white"/>
<rect x="382" y="211" width="18" height="66" rx="9" transform="rotate(90 382 211)" fill="#0A014F"/>
<rect x="310" y="231" width="12" height="58" rx="6" fill="#F5E960"/>
<rect x="389" y="231" width="18" height="12" rx="6" transform="rotate(90 389 231)" fill="#0A014F"/>
<rect x="389" y="253" width="36" height="12" rx="6" transform="rotate(90 389 253)" fill="#0A014F"/>
<rect x="345" y="269" width="20" height="7" rx="3.5" transform="rotate(90 345 269)" fill="#00F0B5"/>
<rect x="334" y="280" width="9" height="6" rx="3" transform="rotate(90 334 280)" fill="#4C5760"/>
<rect x="353" y="248" width="41" height="6" rx="3" transform="rotate(90 353 248)" fill="#D14081"/>
<rect x="328" y="231" width="44" height="6" rx="3" fill="#FFE9F3"/>
<rect x="328" y="239" width="22" height="6" rx="3" fill="#FFE9F3"/>
<rect x="328" y="247" width="11" height="6" rx="3" fill="#FFE9F3"/>
<rect x="328" y="255" width="8" height="6" rx="3" fill="#FFE9F3"/>
<rect x="328" y="263" width="6" height="6" rx="3" fill="#FFE9F3"/>
<rect width="100" height="100" transform="translate(200 400) rotate(-90)" fill="white"/>
<rect x="218" y="389" width="18" height="66" rx="9" transform="rotate(-90 218 389)" fill="#0A014F"/>
<rect x="290" y="369" width="12" height="58" rx="6" transform="rotate(-180 290 369)" fill="#F5E960"/>
<rect x="211" y="369" width="18" height="12" rx="6" transform="rotate(-90 211 369)" fill="#0A014F"/>
<rect x="211" y="347" width="36" height="12" rx="6" transform="rotate(-90 211 347)" fill="#0A014F"/>
<rect x="255" y="331" width="20" height="7" rx="3.5" transform="rotate(-90 255 331)" fill="#00F0B5"/>
<rect x="266" y="320" width="9" height="6" rx="3" transform="rotate(-90 266 320)" fill="#4C5760"/>
<rect x="247" y="352" width="41" height="6" rx="3" transform="rotate(-90 247 352)" fill="#D14081"/>
<rect x="272" y="369" width="44" height="6" rx="3" transform="rotate(-180 272 369)" fill="#FFE9F3"/>
<rect x="272" y="361" width="22" height="6" rx="3" transform="rotate(-180 272 361)" fill="#FFE9F3"/>
<rect x="272" y="353" width="11" height="6" rx="3" transform="rotate(-180 272 353)" fill="#FFE9F3"/>
<rect x="272" y="345" width="8" height="6" rx="3" transform="rotate(-180 272 345)" fill="#FFE9F3"/>
<rect x="272" y="337" width="6" height="6" rx="3" transform="rotate(-180 272 337)" fill="#FFE9F3"/>
<rect width="100" height="100" transform="translate(400 400) rotate(-180)" fill="white"/>
<rect x="389" y="382" width="18" height="66" rx="9" transform="rotate(-180 389 382)" fill="#0A014F"/>
<rect x="369" y="310" width="12" height="58" rx="6" transform="rotate(90 369 310)" fill="#F5E960"/>
<rect x="369" y="389" width="18" height="12" rx="6" transform="rotate(-180 369 389)" fill="#0A014F"/>
<rect x="347" y="389" width="36" height="12" rx="6" transform="rotate(-180 347 389)" fill="#0A014F"/>
<rect x="331" y="345" width="20" height="7" rx="3.5" transform="rotate(-180 331 345)" fill="#00F0B5"/>
<rect x="320" y="334" width="9" height="6" rx="3" transform="rotate(-180 320 334)" fill="#4C5760"/>
<rect x="352" y="353" width="41" height="6" rx="3" transform="rotate(-180 352 353)" fill="#D14081"/>
<rect x="369" y="328" width="44" height="6" rx="3" transform="rotate(90 369 328)" fill="#FFE9F3"/>
<rect x="361" y="328" width="22" height="6" rx="3" transform="rotate(90 361 328)" fill="#FFE9F3"/>
<rect x="353" y="328" width="11" height="6" rx="3" transform="rotate(90 353 328)" fill="#FFE9F3"/>
<rect x="345" y="328" width="8" height="6" rx="3" transform="rotate(90 345 328)" fill="#FFE9F3"/>
<rect x="337" y="328" width="6" height="6" rx="3" transform="rotate(90 337 328)" fill="#FFE9F3"/>
</svg>
